<svg width="1450" height="414" viewBox="0 0 1450 414" fill="none" xmlns="http://www.w3.org/2000/svg">
<path d="M204.172 2.03801C198.844 6.45937 198.025 15.3021 201.303 32.1032L202.779 39.5793L200.156 44.3222C198.025 48.0201 197.533 49.869 197.533 53.6473V58.3902L187.943 59.8372C159.748 63.8566 134.585 74.3875 114.34 90.5455L109.75 94.2434L108.438 92.4748C106.799 90.1436 102.537 88.4554 98.4386 88.4554C95.324 88.4554 94.9962 88.2143 92.7012 84.1948C83.2753 67.7956 76.1445 60.8822 67.2104 59.7568C64.6695 59.4352 63.686 59.7568 61.391 61.7665C59.014 63.8566 58.6042 64.6605 58.6862 67.7152C58.8501 74.4678 65.817 82.5871 79.505 92.0729C86.226 96.7354 86.8817 97.5393 86.8817 101.398C86.8817 104.212 88.521 107.588 90.898 109.678L92.6192 111.205L90.6521 113.295C86.7178 117.395 76.1445 133.634 72.1282 141.833C65.1613 155.982 59.1779 175.837 57.7026 189.423L57.1288 194.407L53.1126 194.729C50.2439 195.05 47.8669 195.935 45.2441 197.783L41.4737 200.436L34.015 198.507C23.7695 195.854 10.9832 195.774 5.98337 198.427C1.80321 200.597 0 202.928 0 206.305C0 214.665 11.9667 217.8 32.2118 214.826C40.982 213.54 42.9491 213.459 44.5064 214.343C48.6866 216.835 51.7192 217.881 54.3421 217.881H57.1288L57.6206 224.231C59.6697 250.357 73.0298 281.87 91.0619 303.172L94.1765 306.87L91.7996 309.121C88.8489 311.935 86.8817 315.874 86.8817 319.009C86.8817 321.179 86.0621 321.983 79.9148 326.003C66.6367 334.604 60.3254 341.92 59.2599 349.717C58.8501 352.45 59.1779 353.174 61.309 355.344C67.5383 361.454 78.5214 355.264 88.521 340.071C94.9962 330.263 94.7503 330.504 99.2583 329.942C103.275 329.379 109.832 325.681 109.832 323.993C109.832 323.511 112.291 325.118 115.405 327.45C126.798 336.453 140.486 344.251 154.502 349.717C163.108 353.094 180.321 357.354 190.402 358.64L198.353 359.605V363.785C198.353 367.001 198.844 368.689 200.566 371.101L202.697 374.236L200.894 385.088C198.926 397.227 198.762 400.925 200.074 405.507C202.205 412.902 209.828 415.796 214.745 410.973C219.09 406.632 219.745 400.442 217.45 384.525L216.057 374.798L218.27 370.457C219.581 367.885 220.483 364.83 220.483 362.901V359.685L229.991 358.238C256.547 354.38 284.907 342 304.332 325.922L307.447 323.35L310.151 326.164C312.528 328.736 313.43 329.138 317.528 329.459C322.692 329.861 322.036 329.218 328.757 339.588C333.429 346.743 340.314 353.656 344.822 355.746C346.543 356.55 349.412 357.354 351.297 357.595C354.248 357.917 355.068 357.595 357.035 355.746C359.002 353.817 359.166 353.174 358.756 349.557C357.854 342 352.445 335.649 340.068 327.691C331.38 322.064 330.315 320.938 330.315 317.803C330.315 314.588 329.249 312.417 326.462 309.443L324.495 307.353L331.298 298.51C338.593 288.944 344.084 279.94 348.592 269.731C350.232 266.194 351.461 263.3 351.379 263.22C351.297 263.139 347.691 261.612 343.429 259.763C338.839 257.753 335.56 256.708 335.396 257.271C335.232 257.753 333.347 261.612 331.216 265.953C311.545 305.263 274.087 333.157 231.056 340.473C222.368 342 197.943 342.161 188.599 340.875C146.142 335.006 107.209 305.825 87.2096 264.988C84.8326 260.084 81.718 252.689 80.3246 248.508C79.0132 244.409 76.9641 239.987 75.8166 238.701C73.5216 235.968 72.5381 231.948 73.3577 228.492C73.6036 227.045 73.5216 225.839 73.0298 225.517C71.8823 224.874 71.8823 219.729 72.9479 219.086C73.4397 218.765 73.7675 214.504 73.7675 208.877C73.7675 184.359 80.7344 159.84 93.6028 139.261C113.356 107.588 144.748 85.8026 182.206 77.8442C193.435 75.4325 221.712 75.2717 232.941 77.4422C275.727 85.883 309.496 110.482 329.331 147.862C334.331 157.268 340.232 172.702 341.38 179.133C341.953 182.429 342.117 182.67 344.166 182.269C345.314 182.108 349.084 181.465 352.445 180.822C355.805 180.259 358.674 179.776 358.756 179.696C358.92 179.616 358.1 175.918 356.953 171.497C352.609 153.731 342.199 132.589 330.56 117.636L325.315 110.884L327.364 108.472C328.511 107.186 329.823 104.533 330.315 102.684C330.806 100.835 331.38 98.9059 331.544 98.3432C331.708 97.8608 335.478 94.7257 339.904 91.4298C356.461 79.1304 362.608 68.5995 357.035 62.1684C355.395 60.3195 354.412 59.9176 351.379 59.998C344.248 60.1587 337.855 65.5447 329.167 78.8088C323.266 87.7319 322.446 88.4554 318.102 88.4554C314.168 88.4554 309.332 90.7063 308.512 92.8768C308.102 93.8414 307.201 93.4395 304.168 91.0278C282.694 73.7444 255.727 62.8115 224.991 59.0333L220.893 58.551L221.221 54.5316C221.385 51.2356 220.975 49.6279 218.352 44.7242L215.319 38.8558L216.795 33.309C218.926 25.0291 219.417 11.3631 217.696 6.86131C215.073 0.108693 209.09 -1.9814 204.172 2.03801Z" fill="#0A3753"/>
<path d="M186.058 82.9086C169.337 85.9633 150.813 93.359 135.978 103.006C130.978 106.221 124.995 111.286 118.847 117.315C93.7665 142.155 81.4719 169.085 79.013 204.295L78.4392 212.414L85.8979 206.626L93.4386 200.838V197.06C93.5206 188.298 98.8482 170.451 104.914 158.393C108.684 150.997 116.225 139.904 119.995 136.045L121.88 134.196L124.175 137.492C127.208 141.753 129.749 143.682 133.683 144.727C136.142 145.37 137.617 146.656 140.322 150.194C142.207 152.686 145.977 157.027 148.682 159.84C153.518 164.824 153.6 164.824 155.239 163.297C156.223 162.493 159.174 160.403 161.878 158.715C164.583 157.027 166.96 155.499 167.124 155.419C167.862 154.936 162.37 149.952 154.256 143.843C146.633 137.975 145.814 137.09 144.83 133.714C143.846 130.016 141.224 126.72 136.634 123.183L134.257 121.495L136.634 119.405C143.682 113.215 158.846 105.096 170.485 101.157C178.435 98.5039 191.385 95.6903 195.812 95.6903H198.762V100.835C198.762 104.935 199.172 106.543 200.647 108.472C202.451 110.884 202.451 111.286 201.713 119.566C201.221 124.389 200.647 132.508 200.401 137.653L199.91 147.139H205.893C209.172 147.219 213.434 147.541 215.401 147.862C217.778 148.345 218.843 148.264 218.843 147.621C218.843 142.878 216.958 119.244 216.384 115.948C215.647 112.09 215.811 111.446 217.368 109.276C218.761 107.507 219.253 105.417 219.499 101.317L219.827 95.6903H222.86C226.63 95.6903 243.924 99.7901 250.891 102.363C260.563 105.98 274.087 113.456 281.956 119.726L283.923 121.254L278.431 126.399C273.841 130.659 272.94 131.945 272.94 134.035C272.94 136.367 272.12 137.331 266.628 141.672C259.497 147.3 249.17 156.785 249.17 157.589C249.17 158.072 262.366 167.155 264.169 167.959C264.989 168.281 265.235 167.959 274.169 155.338C278.021 149.952 281.464 145.451 281.792 145.451C282.12 145.37 283.677 145.209 285.234 145.049C288.349 144.727 291.791 141.592 294.496 136.688C295.889 134.116 295.971 134.116 297.611 135.563C299.906 137.573 306.463 146.496 310.151 152.605C314.823 160.242 319.577 171.496 322.036 180.902C323.265 185.564 324.413 189.503 324.577 189.745C325.233 190.307 336.871 185.404 336.871 184.519C336.871 184.037 335.97 180.58 334.904 176.722C323.019 134.437 293.512 103.327 250.399 87.8122C232.285 81.3008 205.975 79.2911 186.058 82.9086Z" fill="#0A3753"/>
<path d="M193.025 156.464C186.14 157.991 177.616 161.448 172.288 164.905C170.157 166.271 165.075 170.773 161.059 174.873C153.928 182.027 153.354 182.429 147.535 184.037C128.109 189.584 112.864 196.578 96.5533 207.43C83.2752 216.273 78.2754 220.372 78.8491 222.061C79.3409 223.186 83.1932 224.874 96.7172 229.617L102.045 231.546H92.1273C84.2587 231.546 81.9637 231.788 81.1441 232.752C79.4229 234.762 82.2096 236.852 93.0289 241.997C112.864 251.402 135.896 258.316 153.272 260.165C158.6 260.727 158.6 260.727 165.157 266.998C168.764 270.535 173.108 274.313 174.911 275.438C183.025 280.905 196.795 286.21 202.697 286.21C206.631 286.21 206.549 284.683 202.533 276.564C199.582 270.696 197.861 268.364 195.156 266.274C192.287 264.184 191.959 263.702 193.599 264.104C196.959 264.988 218.68 262.898 227.859 260.969C240.564 258.155 249.17 254.698 269.251 244.248C279.415 238.942 289.414 234.28 292.201 233.556C302.365 230.984 309.414 232.27 319.413 238.621C340.314 251.643 359.494 259.361 362.362 255.904C363.92 254.136 362.608 251.563 355.067 240.952C346.215 228.733 345.56 227.286 346.051 221.257C346.461 215.469 348.592 211.047 355.887 201.24C362.69 191.995 363.51 190.307 361.788 188.539C360.149 186.931 358.92 187.011 351.871 188.941C343.593 191.192 335.888 194.327 322.036 200.999C311.299 206.144 309.332 206.787 304.004 207.189C296.299 207.751 290.398 206.305 277.857 200.838C272.694 198.587 264.579 195.211 259.907 193.282L251.301 189.905L258.842 186.207C263.022 184.198 266.383 182.027 266.383 181.384C266.383 179.937 259.334 173.667 252.94 169.406C246.219 164.985 234.417 159.599 226.63 157.589C217.86 155.258 201.139 154.695 193.025 156.464ZM195.73 164.583C194.254 165.708 191.14 168.361 188.845 170.371C186.632 172.381 187.451 171.416 190.73 168.2C194.008 165.065 197.123 162.413 197.615 162.413C198.107 162.413 197.287 163.377 195.73 164.583ZM210.975 166.191C208.762 167.799 204.992 170.773 202.533 172.783C197.533 176.882 197.615 175.837 202.615 171.416C206.549 167.959 213.27 163.216 214.253 163.216C214.663 163.216 213.188 164.583 210.975 166.191ZM226.712 169.085C218.434 175.194 217.04 176.079 217.286 175.355C217.696 174.23 227.204 167.236 228.269 167.316C228.761 167.316 228.023 168.12 226.712 169.085ZM344.822 203.491C344.002 203.973 340.15 205.42 336.298 206.706C332.445 207.993 328.921 209.279 328.347 209.681C327.855 210.083 326.708 210.645 325.806 210.887C322.61 211.932 327.036 209.198 330.642 207.832C342.609 203.491 344.74 202.767 345.478 202.687C345.969 202.687 345.642 203.009 344.822 203.491ZM153.846 214.665C159.42 226.241 154.174 239.907 142.207 245.534C136.224 248.267 134.83 248.187 139.42 245.373C152.944 236.932 156.797 219.569 147.781 207.671C144.912 203.812 145.568 203.411 148.846 207.028C150.486 208.797 152.699 212.253 153.846 214.665ZM125.65 208.395C127.454 210.565 127.454 212.655 125.405 214.665C123.274 216.755 121.224 216.675 118.52 214.585C115.815 212.494 115.651 208.877 118.274 207.028C120.487 205.501 123.601 206.063 125.65 208.395ZM341.625 207.832C340.888 208.555 329.249 212.253 327.937 212.173C327.2 212.092 329.741 211.047 333.593 209.761C340.478 207.51 342.445 207.028 341.625 207.832ZM207.778 219.167C210.975 219.89 214.008 220.453 214.581 220.533C216.057 220.614 215.975 220.855 211.385 226.402C201.795 238.219 190.32 244.569 178.681 244.328C175.075 244.328 175.157 244.248 181.14 242.801C188.681 240.952 194.008 238.781 198.926 235.485C203.024 232.672 213.926 222.864 213.926 221.9C213.926 221.096 203.434 219.488 197.943 219.488C192.287 219.488 183.025 220.774 177.206 222.463C171.796 223.91 170.813 223.427 175.567 221.498C184.746 217.88 197.697 216.916 207.778 219.167ZM188.517 230.341C185.566 230.903 182.206 231.546 180.976 231.948C177.042 232.993 178.517 231.627 182.615 230.421C184.746 229.778 188.107 229.296 190.156 229.296C193.681 229.296 193.599 229.376 188.517 230.341ZM334.413 232.35C336.216 233.235 337.691 234.199 337.691 234.36C337.691 234.923 331.708 232.431 330.806 231.466C329.495 230.26 330.97 230.582 334.413 232.35ZM336.626 237.254C341.953 240.47 346.871 243.524 347.527 244.248C349.084 245.695 348.838 245.614 339.33 240.148C331.626 235.727 325.397 231.546 326.462 231.546C326.79 231.546 331.38 234.119 336.626 237.254ZM189.254 236.691C189.091 236.852 186.55 237.174 183.599 237.495C179.993 237.817 178.681 237.736 179.501 237.174C180.648 236.45 190.074 235.968 189.254 236.691Z" fill="#0A3753"/>
<path d="M385.23 198.186C376.706 200.517 374.739 200.597 372.116 198.588C370.969 197.703 369.821 196.98 369.493 196.98C368.51 196.98 352.445 220.132 352.445 221.579C352.445 223.428 358.674 232.753 359.248 231.788C359.576 231.306 361.461 219.73 361.461 218.202C361.461 218.041 362.526 217.881 363.838 217.881C367.034 217.881 370.477 216.595 372.69 214.504L374.411 212.897L385.394 214.665C401.787 217.398 409.656 216.353 415.803 210.807C418.59 208.234 418.672 205.099 415.967 201.964C411.131 196.337 397.607 194.649 385.23 198.186Z" fill="#0A3753"/>
<path d="M86.0623 246.499C86.0623 247.946 90.4883 258.799 93.521 264.667C117.045 310.569 163.682 338.624 213.106 336.614C261.465 334.605 304.004 307.192 325.397 264.104C331.216 252.448 331.216 253.252 325.233 249.554C322.446 247.866 319.823 246.338 319.577 246.178C319.25 246.017 318.512 247.303 318.02 248.991C315.069 257.914 303.676 276.805 298.349 281.79L295.726 284.201L294.415 282.191C291.71 278.172 287.939 275.117 284.497 274.153C282.53 273.67 279.497 271.902 277.53 270.133L274.005 266.918L269.416 270.374C266.875 272.223 264.826 273.992 264.744 274.233C264.744 274.474 266.793 276.886 269.252 279.539C271.792 282.352 273.76 285.246 273.76 286.211C273.76 287.176 275.645 289.909 278.35 292.722L283.022 297.465L281.054 299.073C277.038 302.449 265.727 309.443 259.416 312.578C251.465 316.437 238.843 320.537 229.909 322.064C219.336 323.913 219.663 323.993 219.663 318.125C219.663 314.508 219.172 312.417 217.942 310.408C216.303 307.755 216.303 307.514 217.532 296.34C219.172 281.388 219.418 273.751 218.188 273.831C217.614 273.912 215.565 273.992 213.516 273.992L209.91 274.153L211.467 277.529C213.188 281.307 213.516 285.809 212.287 288.944C211.303 291.677 206.877 294.25 203.353 294.25H200.648L201.14 300.842C201.631 306.469 201.467 307.996 200.238 310.327C199.254 312.176 198.763 314.91 198.763 318.205V323.35L193.435 322.788C180.485 321.421 164.092 315.794 151.633 308.478C144.994 304.62 136.06 298.43 136.06 297.787C136.06 297.546 137.7 295.777 139.749 293.767C141.716 291.758 143.765 288.783 144.339 287.176C144.912 285.407 147.699 281.709 151.306 278.092C154.666 274.715 157.371 271.58 157.371 271.098C157.371 269.651 155.322 268.686 151.224 268.124C149.011 267.882 146.306 267.48 145.404 267.32C144.093 266.998 142.371 267.963 139.503 270.535C136.962 272.786 134.667 274.153 133.355 274.153C131.224 274.153 128.192 276.645 124.339 281.388L122.126 284.201L119.667 281.388C115.241 276.323 109.258 267.4 105.652 260.567L102.045 253.895L94.0947 249.956C89.6687 247.785 86.0623 246.258 86.0623 246.499Z" fill="#0A3753"/>
<path d="M268.842 248.428C266.383 249.715 260.154 252.689 255.072 255.02L245.892 259.281L253.269 263.622L260.645 267.882L265.235 265.23C269.661 262.577 281.956 252.046 281.956 250.92C281.956 250.117 275.481 246.017 274.333 246.017C273.76 246.017 271.301 247.142 268.842 248.428Z" fill="#0A3753"/>
<path d="M467.768 115.328C467.768 116.158 469.262 118.15 471.088 119.81C474.241 122.631 474.407 124.955 474.407 158.152V193.672L470.258 196.327C467.934 197.821 466.606 199.647 467.104 200.477C467.602 201.307 480.549 201.971 495.985 201.971C527.19 201.971 524.866 202.967 526.692 188.194C528.186 176.742 526.692 176.244 518.061 185.207C512.583 190.85 510.425 191.846 502.292 192.842L492.665 193.838V157.322C492.665 122.465 492.831 120.64 495.985 118.98C502.624 115.328 499.139 114 483.536 114C474.905 114 467.768 114.664 467.768 115.328Z" fill="#0A3753"/>
<path d="M541.796 115.494C541.298 116.324 542.626 118.15 544.95 119.643L549.099 122.299V157.985V193.671L544.95 196.327C542.626 197.821 540.8 199.647 540.8 200.477C540.8 201.307 554.245 201.971 570.511 201.971C603.874 201.971 600.886 203.298 603.708 188.194C605.699 177.571 603.21 176.741 595.74 185.372C590.097 192.012 589.267 192.344 578.644 193.173L567.357 194.169V177.239V160.475H573.831C578.976 160.475 580.968 161.471 583.624 164.957C585.449 167.612 587.441 169.272 587.773 168.774C588.271 168.276 589.101 162.965 589.599 156.657C590.595 146.864 590.429 145.537 587.939 145.537C586.445 145.537 584.288 146.698 583.292 148.026C582.296 149.354 578.312 150.848 574.495 151.512L567.357 152.674V137.403V122.299H576.154C584.454 122.299 585.449 122.797 591.591 129.27L598.064 136.408L598.562 127.445C598.894 122.631 598.728 117.486 598.23 116.324C597.566 114.498 591.591 114 570.013 114C554.909 114 542.294 114.664 541.796 115.494Z" fill="#0A3753"/>
<path d="M647.155 115.435C646.438 117.407 646.259 117.228 649.755 119.379C651.458 120.455 653.341 122.069 653.789 122.965C654.596 124.489 652.624 185.274 651.548 191.729C651.189 193.522 649.934 195.404 648.231 196.749C646.348 198.273 645.631 199.439 645.99 200.425C646.797 202.576 667.237 202.576 667.237 200.425C667.237 199.708 666.072 198.094 664.637 196.839C663.203 195.673 661.768 193.522 661.499 192.177C661.141 190.832 661.589 179.088 662.306 165.998C663.024 152.909 663.651 141.254 663.741 139.999C663.741 138.655 664.01 138.296 664.279 139.103C670.106 154.792 686.154 195.942 687.319 198.094C688.574 200.604 689.292 201.052 691.533 200.783C694.222 200.514 694.312 200.335 704.174 174.067C709.643 159.543 714.753 145.468 715.56 142.958C716.367 140.358 717.173 138.206 717.442 138.206C717.711 138.206 718.07 140.537 718.16 143.316C718.249 146.185 718.966 157.93 719.684 169.495C721.118 192.087 720.76 195.135 716.636 197.377C715.56 197.915 714.753 199.17 714.753 200.066C714.753 201.77 715.47 201.859 728.201 201.859C743.71 201.859 744.876 201.232 739.497 196.211C737.076 193.88 736.269 192.446 736.269 190.115C736.269 188.411 735.462 174.964 734.476 160.171C733.49 145.378 732.683 131.303 732.683 128.972C732.683 124.579 733.311 123.593 738.959 119.021C741.021 117.407 741.021 117.317 739.407 116.152C737.256 114.538 721.477 114.448 718.339 116.062C716.904 116.779 715.47 118.931 714.125 122.517C713.049 125.476 708.298 138.206 703.636 150.758C697.36 167.791 695.029 173.171 694.491 171.826C688.843 156.764 673.065 117.497 672.078 115.973C670.823 114.09 670.196 114 659.258 114C649.576 114 647.603 114.269 647.155 115.435Z" fill="#0A3753"/>
<path d="M779.661 114.807C777.151 115.883 770.965 124.579 771.592 126.193C772.578 128.793 776.971 127.538 782.709 122.965C788.268 118.393 789.971 114.897 786.743 114.897C785.847 114.897 784.323 114.717 783.337 114.448C782.351 114.269 780.737 114.448 779.661 114.807Z" fill="#0A3753"/>
<path d="M1305.56 114.897C1303.41 116.152 1297.22 125.476 1297.94 126.551C1299.28 128.703 1303.5 127.358 1308.79 123.055C1311.84 120.545 1314.53 117.945 1314.88 117.138C1315.78 114.717 1308.79 113.014 1305.56 114.897Z" fill="#0A3753"/>
<path d="M910.912 132.648L907.505 132.917V140.896C907.505 145.289 907.863 149.054 908.312 149.323C909.925 150.399 911.539 148.875 914.049 144.124C916.291 139.91 917.008 139.282 919.877 138.744C927.049 137.579 926.421 134.8 926.153 166.537L925.884 194.867L923.463 196.839C919.07 200.335 920.146 200.873 932.159 201.142C938.345 201.322 943.814 201.232 944.262 201.142C945.876 200.604 945.248 198.811 942.738 196.839L940.228 194.867L939.959 166.985C939.69 135.786 939.331 137.131 945.966 138.744C948.745 139.462 949.552 140.269 951.883 145.11C954.662 151.027 956.365 152.461 958.338 150.489C959.324 149.503 959.413 147.441 958.965 141.075L958.338 132.827H943.904C935.925 132.738 926.063 132.648 921.849 132.558C917.636 132.469 912.705 132.469 910.912 132.648Z" fill="#0A3753"/>
<path d="M1034.18 132.648C1023.16 132.827 1022.26 133.007 1022.26 134.62C1022.26 135.517 1023.07 136.593 1024.14 136.862C1025.13 137.22 1026.29 138.475 1026.83 139.73C1027.28 140.896 1027.64 153.627 1027.64 167.971V193.97L1024.95 196.48C1023.51 197.825 1022.26 199.439 1022.26 199.977C1022.26 201.232 1046.11 201.322 1046.91 200.156C1047.18 199.618 1046.73 198.722 1046.02 198.094C1040.91 193.97 1041.09 194.508 1041.09 182.584C1041.09 171.378 1041.09 171.378 1043.24 171.378C1046.02 171.378 1046.47 172.005 1052.38 184.019C1055.07 189.667 1058.48 195.404 1059.73 196.749C1063.86 201.142 1070.67 202.935 1076.77 201.322C1078.92 200.694 1079.64 197.377 1077.58 197.377C1075.15 197.377 1070.58 191.191 1064.84 180.164L1058.93 168.867L1062.15 166.895C1071.57 161.068 1074.17 148.068 1067.53 140.089C1062.33 133.903 1054.53 132.2 1034.18 132.648ZM1051.93 141.165C1056.24 144.034 1057.31 146.723 1056.96 153.178C1056.78 157.571 1056.24 159.275 1054.53 161.068C1052.11 163.578 1047.09 165.461 1043.78 164.923C1041.53 164.654 1041.53 164.654 1041.27 153.089C1041.18 146.634 1041.27 140.896 1041.45 140.268C1042.25 138.296 1048.53 138.834 1051.93 141.165Z" fill="#0A3753"/>
<path d="M753.303 134.62C753.303 135.606 753.841 136.413 754.469 136.413C755.186 136.413 756.351 137.13 757.158 138.027C758.503 139.461 758.682 142.868 758.682 166.805V193.97L755.993 196.48C754.558 197.825 753.303 199.618 753.303 200.425C753.303 201.77 755.545 201.859 775.447 201.68L797.681 201.411L798.667 196.928C799.295 194.418 799.833 190.115 799.833 187.246C799.922 181.06 799.026 180.881 794.991 186.618C790.778 192.625 788.805 193.611 780.02 194.328L772.13 194.956V182.225V169.585H777.509C782.799 169.585 782.978 169.674 784.771 172.722C787.999 178.191 788.985 176.936 789.343 166.805C789.523 159.633 789.343 157.571 788.357 157.213C787.64 156.944 786.564 157.481 785.937 158.468C783.426 162.143 782.799 162.412 777.509 162.412H772.13V150.668V138.834L778.764 139.282C786.026 139.73 788.178 140.896 791.495 145.737C794.812 150.668 796.336 150.04 796.336 143.675C796.336 140.806 796.067 137.13 795.798 135.606L795.26 132.827H774.282C753.931 132.827 753.303 132.917 753.303 134.62Z" fill="#0A3753"/>
<path d="M807.991 134.082C807.991 134.799 808.977 136.144 810.143 136.861C814.088 139.461 814.357 141.613 814.088 169.047L813.819 194.777L810.95 197.197C805.66 201.501 807.453 202.039 825.563 201.68C841.611 201.411 841.7 201.411 847.528 198.542C854.79 194.956 860.079 189.398 863.844 181.419C866.534 175.77 866.713 174.784 866.713 165.46C866.713 155.868 866.624 155.33 863.576 149.323C861.334 144.93 859.183 142.241 855.955 139.82C848.783 134.351 844.838 133.455 825.294 133.006C809.964 132.737 807.991 132.827 807.991 134.082ZM842.418 142.689C848.335 146.454 851.114 152.64 851.652 163.219C852.459 177.384 848.424 189.667 841.88 193.073C837.935 195.135 829.687 195.494 828.522 193.611C828.073 192.984 827.715 180.612 827.715 166.178V139.999H832.915C837.128 139.999 838.921 140.537 842.418 142.689Z" fill="#0A3753"/>
<path d="M874.692 133.813C874.423 134.351 875.499 135.875 877.113 137.31L880.161 139.82V167.254V194.777L877.203 197.018C875.589 198.273 874.513 199.708 874.782 200.156C875.141 200.604 880.789 200.963 887.423 200.963C897.285 200.963 899.436 200.694 899.436 199.708C899.436 198.991 898.271 197.556 896.747 196.48L894.057 194.598V167.254V139.999L896.747 137.22C898.181 135.606 899.167 134.082 898.898 133.634C898.181 132.469 875.499 132.648 874.692 133.813Z" fill="#0A3753"/>
<path d="M966.675 134.62C966.675 135.606 967.213 136.413 967.841 136.413C968.558 136.413 969.723 137.131 970.53 138.027C971.875 139.461 972.054 142.868 972.054 166.805V193.97L969.365 196.48C963.986 201.501 965.42 201.859 990.971 201.59L1010.16 201.411L1011.23 198.184C1012.67 193.701 1013.12 182.584 1011.86 182.584C1011.32 182.584 1009.44 184.377 1007.83 186.529C1003.16 192.536 1001.28 193.522 992.943 194.149L985.502 194.687V182.136V169.585H990.881C996.171 169.585 996.35 169.674 998.233 172.722C1001.1 177.743 1002.09 176.308 1002.36 166.178C1002.54 157.93 1002.45 157.033 1001.01 157.033C1000.12 157.033 998.681 158.288 997.874 159.723C996.44 162.233 995.992 162.412 990.881 162.412H985.502V150.758V139.103H990.881C998.054 139.103 1001.91 140.806 1004.87 145.289C1008.72 151.206 1009.8 150.309 1009.53 141.075L1009.26 133.275L988.013 133.007C967.124 132.827 966.675 132.827 966.675 134.62Z" fill="#0A3753"/>
<path d="M1084.12 134.082C1084.12 134.889 1085.29 136.055 1086.81 136.862C1088.6 137.758 1089.59 139.103 1089.95 141.165C1090.22 142.689 1090.4 155.419 1090.22 169.405C1089.95 193.701 1089.86 194.866 1088.15 196.032C1084.84 198.363 1083.94 199.349 1084.75 200.156C1085.11 200.515 1090.57 200.963 1096.94 201.052C1109.4 201.321 1111.82 200.604 1108.33 197.646C1103.75 193.88 1103.84 194.149 1103.84 182.494V171.288L1106.35 171.557C1108.51 171.826 1109.4 173.081 1114.15 182.763C1117.11 188.77 1120.79 194.956 1122.22 196.57C1126.61 201.142 1132.62 202.935 1138.63 201.321C1141.14 200.604 1141.23 197.735 1138.81 196.928C1136.57 196.211 1133.34 191.46 1126.7 179.088L1121.5 169.226L1123.57 167.881C1131.81 162.323 1135.4 154.613 1133.34 146.903C1131.9 141.523 1129.75 138.924 1124.28 135.875C1119.53 133.275 1119.53 133.275 1101.87 133.006C1086.27 132.738 1084.12 132.827 1084.12 134.082ZM1116.48 142.51C1120.79 147.351 1120.88 157.93 1116.66 161.695C1114.51 163.578 1108.51 165.192 1105.91 164.564C1103.84 164.026 1103.84 163.847 1103.84 151.475V138.924L1108.95 139.282C1113.17 139.641 1114.42 140.179 1116.48 142.51Z" fill="#0A3753"/>
<path d="M1164.45 133.634C1164.18 134.082 1164.72 135.427 1165.7 136.682C1166.69 137.937 1167.5 139.641 1167.5 140.627C1167.5 141.523 1163.64 153.806 1158.89 167.971C1150.91 191.998 1150.1 193.97 1147.15 196.391C1141.95 200.694 1143.38 201.859 1153.96 201.859C1159.52 201.859 1163.1 201.501 1163.55 200.873C1163.82 200.335 1162.83 198.722 1161.31 197.377C1158.35 194.598 1158.26 193.073 1160.77 185.722L1161.85 182.584L1172.79 182.136C1185.34 181.598 1184.53 181.15 1186.41 189.667L1187.58 194.956L1184.98 196.929C1183.36 198.273 1182.65 199.528 1183.01 200.425C1183.45 201.68 1185.34 201.859 1195.2 201.859C1208.83 201.859 1209.9 201.142 1204.43 195.763C1201.29 192.715 1200.22 190.115 1191.25 163.757C1185.96 147.978 1181.21 134.531 1180.67 133.903C1179.69 132.648 1165.17 132.379 1164.45 133.634ZM1177.72 162.771L1181.75 174.067H1173.23C1166.69 174.067 1164.72 173.798 1164.99 172.902C1165.17 172.364 1166.96 166.716 1168.93 160.53C1170.9 153.985 1172.7 149.682 1173.05 150.309C1173.41 150.937 1175.56 156.495 1177.72 162.771Z" fill="#0A3753"/>
<path d="M1211.87 133.724C1211.52 134.351 1212.5 135.875 1214.2 137.31L1217.25 139.82L1217.52 166.447L1217.79 193.073L1214.47 196.122C1209.45 200.873 1210.53 201.859 1221.29 201.859C1231.96 201.859 1233.39 200.694 1228.37 196.48L1225.32 193.97L1225.23 173.26C1225.14 161.875 1225.32 152.551 1225.68 152.551C1226.04 152.551 1233.93 163.309 1243.25 176.398C1253.11 190.294 1261.09 200.694 1262.35 201.232C1266.74 203.294 1267.01 201.68 1267.01 168.957V139.103L1269.25 137.131C1273.38 133.544 1272.3 132.827 1262.98 132.827C1253.29 132.827 1252.58 133.455 1257.15 138.027L1259.84 140.717V157.84C1259.84 168.688 1259.48 174.964 1258.94 174.964C1258.49 174.964 1258.04 174.605 1258.04 174.247C1258.04 173.798 1251.5 164.474 1243.43 153.358L1228.82 133.275L1220.66 133.007C1215.28 132.827 1212.23 133.096 1211.87 133.724Z" fill="#0A3753"/>
<path d="M1280.46 134.62C1280.46 135.606 1280.91 136.413 1281.35 136.413C1281.89 136.413 1283.06 137.22 1284.04 138.206C1285.75 139.91 1285.84 141.165 1285.84 166.985V193.97L1283.06 196.57C1277.68 201.59 1278.84 201.859 1302.78 201.859C1320.35 201.859 1324.3 201.59 1324.66 200.604C1325.64 198.094 1327.26 184.825 1326.72 183.481C1325.91 181.239 1324.84 181.957 1321.34 186.977C1317.48 192.625 1315.69 193.522 1306.28 194.329L1299.28 194.867V182.226V169.585H1304.48C1310.31 169.585 1311.03 169.943 1312.46 173.35C1313.09 174.784 1314.17 175.86 1314.97 175.86C1316.05 175.86 1316.32 174.247 1316.32 166.447C1316.32 158.737 1316.05 157.033 1314.97 157.033C1314.26 157.033 1313.18 157.93 1312.64 159.006C1311.12 161.964 1310.13 162.412 1304.48 162.412H1299.28V150.758V139.103H1304.66C1311.75 139.103 1315.69 140.806 1318.74 145.289C1322.68 150.937 1323.49 150.13 1323.49 140.896V132.827H1301.97C1281.09 132.827 1280.46 132.917 1280.46 134.62Z" fill="#0A3753"/>
<path d="M1335.5 133.903C1335.15 134.531 1335.5 135.337 1336.49 135.875C1341.69 138.924 1341.51 137.668 1341.24 167.433L1340.97 194.687L1338.37 196.839C1336.58 198.184 1335.95 199.349 1336.31 200.335C1336.85 201.68 1339.18 201.859 1358.37 201.859H1379.88L1380.87 198.453C1382.39 193.253 1383.02 183.391 1381.94 182.674C1381.41 182.315 1379.34 184.198 1377.28 186.977C1375.31 189.756 1372.98 192.356 1372.08 192.805C1371.19 193.253 1366.97 193.97 1362.67 194.329L1354.87 194.956V182.226V169.585H1360.25C1365.54 169.585 1365.72 169.674 1367.51 172.722C1370.92 178.371 1371.9 176.936 1371.9 166.447C1371.9 156.047 1371.19 154.882 1367.6 159.723C1365.72 162.233 1365.18 162.412 1359.98 162.412H1354.42L1354.6 153.178C1354.78 137.31 1354.06 139.103 1360.25 139.103C1367.42 139.103 1371.28 140.806 1374.23 145.289C1378.09 151.206 1379.16 150.309 1378.9 141.075L1378.63 133.275L1357.38 133.007C1341.6 132.827 1336.04 133.096 1335.5 133.903Z" fill="#0A3753"/>
<path d="M1390.73 134.172C1390.73 134.889 1392.07 136.682 1393.69 138.117L1396.56 140.717V167.254V193.701L1393.51 196.839C1391.9 198.542 1390.82 200.335 1391.09 200.873C1391.54 201.501 1395.12 201.859 1400.23 201.859C1410.18 201.859 1411.53 200.784 1406.96 196.57C1403.82 193.611 1403.91 194.418 1403.82 168.509C1403.73 159.723 1404 152.64 1404.36 152.82C1404.98 152.999 1414.76 166.626 1431.07 190.025C1438.34 200.515 1441.11 203.025 1443.54 201.411C1444.25 201.053 1444.52 191.011 1444.52 170.929V140.986L1447.21 137.937C1448.73 136.234 1449.9 134.351 1449.9 133.813C1449.9 133.186 1446.94 132.827 1440.94 132.827C1432.87 132.827 1431.97 133.007 1431.97 134.441C1431.97 135.337 1432.96 136.682 1434.21 137.31C1435.38 137.937 1436.72 139.372 1436.99 140.358C1437.53 142.061 1437.62 174.067 1437.08 174.605C1436.99 174.695 1433.14 169.495 1428.65 163.04C1424.08 156.495 1417.36 146.992 1413.59 141.972L1406.87 132.827H1398.8C1392.16 132.827 1390.73 133.096 1390.73 134.172Z" fill="#0A3753"/>
<path d="M871.603 268.496C859.394 271.6 852.152 282.497 853.945 294.982C855.601 306.638 863.464 313.812 875.327 314.57C891.191 315.536 902.434 304.293 901.331 288.705C900.434 276.773 891.881 268.703 879.535 268.082C876.638 267.944 873.051 268.151 871.603 268.496ZM883.604 274.496C884.984 275.393 886.984 277.738 888.088 279.738C889.743 282.842 890.088 284.291 890.295 289.947C890.64 298.293 889.398 302.983 885.742 307.121C883.466 309.673 882.708 310.087 879.673 310.363C873.741 310.984 868.637 307.466 866.292 301.12C859.808 283.67 871.189 266.151 883.604 274.496Z" fill="#0A3753"/>
<path d="M911.815 269.393C911.815 269.875 912.573 270.703 913.539 271.117C914.505 271.6 915.608 272.703 915.953 273.738C916.85 275.945 916.85 304.431 915.953 308.156C915.608 309.673 914.988 310.984 914.574 311.122C913.332 311.536 911.815 313.398 912.16 314.088C912.78 315.053 929.541 314.915 930.162 313.881C930.438 313.467 929.748 312.363 928.506 311.329C926.23 309.398 926.092 308.777 926.23 300.017L926.299 295.396H928.3C930.093 295.396 930.576 295.948 933.542 301.741C938.025 310.363 939.128 311.881 942.439 313.398C946.785 315.398 953.889 314.984 953.13 312.777C952.992 312.363 951.82 311.329 950.509 310.432C948.992 309.398 946.647 306.225 943.75 301.259C939.887 294.499 939.473 293.602 940.508 292.982C942.991 291.533 946.44 288.223 947.405 286.36C948.854 283.532 948.647 277.601 947.06 274.911C946.302 273.738 944.233 271.876 942.37 270.772C939.059 268.841 938.99 268.841 925.472 268.634C914.022 268.427 911.815 268.565 911.815 269.393ZM934.438 274.014C939.473 277.118 940.094 285.808 935.473 288.843C933.611 290.085 926.299 291.119 926.23 290.154C925.816 285.533 925.954 274.773 926.437 273.807C927.265 272.152 931.541 272.29 934.438 274.014Z" fill="#0A3753"/>
<path d="M975.961 269.393C975.961 269.944 976.443 270.772 976.995 271.255C977.547 271.738 978.03 272.841 978.03 273.738C978.03 275.255 967.201 305.535 965.615 308.57C965.201 309.26 963.959 310.363 962.856 311.053C961.683 311.674 960.786 312.777 960.786 313.467C960.786 314.64 961.407 314.709 968.167 314.571C975.823 314.364 977.823 313.467 974.305 311.881C971.891 310.777 971.546 309.053 972.857 304.983L974.029 301.534L982.03 301.741L989.962 301.948L991.342 305.949C992.721 310.087 992.308 311.95 990.031 311.95C989.48 311.95 989.066 312.57 989.066 313.329C989.066 314.709 989.411 314.709 998.17 314.571C1005.69 314.433 1007.34 314.157 1007.48 313.329C1007.62 312.777 1006.65 311.674 1005.41 310.915C1003.41 309.604 1002.58 307.811 995.618 289.188L988.031 268.841L981.961 268.634C977.133 268.496 975.961 268.634 975.961 269.393ZM987.893 296.223C987.479 296.982 975.961 296.913 975.961 296.155C975.961 295.81 977.271 291.878 978.858 287.395L981.686 279.325L984.927 287.533C986.721 292.085 988.031 295.948 987.893 296.223Z" fill="#0A3753"/>
<path d="M1017.21 268.979C1015.41 269.461 1015.69 270.358 1018.38 272.91L1020.79 275.186V292.499V309.811L1018.72 311.398C1015.07 314.088 1015.9 314.708 1023.55 314.708C1029.9 314.708 1030.45 314.571 1030.45 313.398C1030.45 312.639 1029.83 311.812 1029 311.605C1028.24 311.329 1027.35 310.363 1026.93 309.397C1026.17 307.397 1026.1 281.601 1026.86 281.67C1027.14 281.67 1033.07 288.912 1040.11 297.81C1058.45 320.985 1058.25 321.054 1057.97 293.464L1057.76 273.876L1060.04 271.945C1061.42 270.841 1062.18 269.737 1061.9 269.324C1061.28 268.358 1048.66 268.151 1048.04 269.117C1047.83 269.461 1048.8 270.841 1050.11 272.083L1052.59 274.359L1052.38 286.015L1052.18 297.603L1040.93 283.463C1031.69 271.876 1029.28 269.255 1027.55 268.91C1025.21 268.427 1019.07 268.496 1017.21 268.979Z" fill="#0A3753"/>
<path d="M738 288.843V290.567H778.35H818.7V288.843V287.119H778.35H738V288.843Z" fill="#0A3753"/>
<path d="M1097.35 288.843V290.567H1137.7H1178.05V288.843V287.119H1137.7H1097.35V288.843Z" fill="#0A3753"/>
</svg>
