<?xml version="1.0" standalone="no"?>
<!DOCTYPE svg PUBLIC "-//W3C//DTD SVG 20010904//EN"
 "http://www.w3.org/TR/2001/REC-SVG-20010904/DTD/svg10.dtd">
<svg version="1.0" xmlns="http://www.w3.org/2000/svg"
 width="1024.000000pt" height="1024.000000pt" viewBox="0 0 1024.000000 1024.000000"
 preserveAspectRatio="xMidYMid meet">

<g transform="translate(0.000000,1024.000000) scale(0.100000,-0.100000)"
fill="#000000" stroke="none">
<path d="M5061 9385 c-65 -55 -75 -165 -35 -374 l18 -93 -32 -59 c-26 -46 -32
-69 -32 -116 l0 -59 -117 -18 c-344 -50 -651 -181 -898 -382 l-56 -46 -16 22
c-20 29 -72 50 -122 50 -38 0 -42 3 -70 53 -115 204 -202 290 -311 304 -31 4
-43 0 -71 -25 -29 -26 -34 -36 -33 -74 2 -84 87 -185 254 -303 82 -58 90 -68
90 -116 0 -35 20 -77 49 -103 l21 -19 -24 -26 c-48 -51 -177 -253 -226 -355
-85 -176 -158 -423 -176 -592 l-7 -62 -49 -4 c-35 -4 -64 -15 -96 -38 l-46
-33 -91 24 c-125 33 -281 34 -342 1 -51 -27 -73 -56 -73 -98 0 -104 146 -143
393 -106 107 16 131 17 150 6 51 -31 88 -44 120 -44 l34 0 6 -79 c25 -325 188
-717 408 -982 l38 -46 -29 -28 c-36 -35 -60 -84 -60 -123 0 -27 -10 -37 -85
-87 -162 -107 -239 -198 -252 -295 -5 -34 -1 -43 25 -70 76 -76 210 1 332 190
79 122 76 119 131 126 49 7 129 53 129 74 0 6 30 -14 68 -43 139 -112 306
-209 477 -277 105 -42 315 -95 438 -111 l97 -12 0 -52 c0 -40 6 -61 27 -91
l26 -39 -22 -135 c-24 -151 -26 -197 -10 -254 26 -92 119 -128 179 -68 53 54
61 131 33 329 l-17 121 27 54 c16 32 27 70 27 94 l0 40 116 18 c324 48 670
202 907 402 l38 32 33 -35 c29 -32 40 -37 90 -41 63 -5 55 3 137 -126 57 -89
141 -175 196 -201 21 -10 56 -20 79 -23 36 -4 46 0 70 23 24 24 26 32 21 77
-11 94 -77 173 -228 272 -106 70 -119 84 -119 123 0 40 -13 67 -47 104 l-24
26 83 110 c89 119 156 231 211 358 20 44 35 80 34 81 -1 1 -45 20 -97 43 -56
25 -96 38 -98 31 -2 -6 -25 -54 -51 -108 -240 -489 -697 -836 -1222 -927 -106
-19 -404 -21 -518 -5 -518 73 -993 436 -1237 944 -29 61 -67 153 -84 205 -16
51 -41 106 -55 122 -28 34 -40 84 -30 127 3 18 2 33 -4 37 -14 8 -14 72 -1 80
6 4 10 57 10 127 0 305 85 610 242 866 241 394 624 665 1081 764 137 30 482
32 619 5 522 -105 934 -411 1176 -876 61 -117 133 -309 147 -389 7 -41 9 -44
34 -39 14 2 60 10 101 18 41 7 76 13 77 14 2 1 -8 47 -22 102 -53 221 -180
484 -322 670 l-64 84 25 30 c14 16 30 49 36 72 6 23 13 47 15 54 2 6 48 45
102 86 202 153 277 284 209 364 -20 23 -32 28 -69 27 -87 -2 -165 -69 -271
-234 -72 -111 -82 -120 -135 -120 -48 0 -107 -28 -117 -55 -5 -12 -16 -7 -53
23 -262 215 -591 351 -966 398 l-50 6 4 50 c2 41 -3 61 -35 122 l-37 73 18 69
c26 103 32 273 11 329 -32 84 -105 110 -165 60z"/>
<path d="M4840 8379 c-204 -38 -430 -130 -611 -250 -61 -40 -134 -103 -209
-178 -306 -309 -456 -644 -486 -1082 l-7 -101 91 72 92 72 0 47 c1 109 66 331
140 481 46 92 138 230 184 278 l23 23 28 -41 c37 -53 68 -77 116 -90 30 -8 48
-24 81 -68 23 -31 69 -85 102 -120 59 -62 60 -62 80 -43 12 10 48 36 81 57 33
21 62 40 64 41 9 6 -58 68 -157 144 -93 73 -103 84 -115 126 -12 46 -44 87
-100 131 l-29 21 29 26 c86 77 271 178 413 227 97 33 255 68 309 68 l36 0 0
-64 c0 -51 5 -71 23 -95 22 -30 22 -35 13 -138 -6 -60 -13 -161 -16 -225 l-6
-118 73 0 c40 -1 92 -5 116 -9 29 -6 42 -5 42 3 0 59 -23 353 -30 394 -9 48
-7 56 12 83 17 22 23 48 26 99 l4 70 37 0 c46 0 257 -51 342 -83 118 -45 283
-138 379 -216 l24 -19 -67 -64 c-56 -53 -67 -69 -67 -95 0 -29 -10 -41 -77
-95 -87 -70 -213 -188 -213 -198 0 -6 161 -119 183 -129 10 -4 13 0 122 157
47 67 89 123 93 123 4 1 23 3 42 5 38 4 80 43 113 104 17 32 18 32 38 14 28
-25 108 -136 153 -212 57 -95 115 -235 145 -352 15 -58 29 -107 31 -110 8 -7
150 54 150 65 0 6 -11 49 -24 97 -145 526 -505 913 -1031 1106 -221 81 -542
106 -785 61z"/>
<path d="M4925 7464 c-84 -19 -188 -62 -253 -105 -26 -17 -88 -73 -137 -124
-87 -89 -94 -94 -165 -114 -237 -69 -423 -156 -622 -291 -162 -110 -223 -161
-216 -182 6 -14 53 -35 218 -94 l65 -24 -121 0 c-96 0 -124 -3 -134 -15 -21
-25 13 -51 145 -115 242 -117 523 -203 735 -226 65 -7 65 -7 145 -85 44 -44
97 -91 119 -105 99 -68 267 -134 339 -134 48 0 47 19 -2 120 -36 73 -57 102
-90 128 -35 26 -39 32 -19 27 41 -11 306 15 418 39 155 35 260 78 505 208 124
66 246 124 280 133 124 32 210 16 332 -63 255 -162 489 -258 524 -215 19 22 3
54 -89 186 -108 152 -116 170 -110 245 5 72 31 127 120 249 83 115 93 136 72
158 -20 20 -35 19 -121 -5 -101 -28 -195 -67 -364 -150 -131 -64 -155 -72
-220 -77 -94 -7 -166 11 -319 79 -63 28 -162 70 -219 94 l-105 42 92 46 c51
25 92 52 92 60 0 18 -86 96 -164 149 -82 55 -226 122 -321 147 -107 29 -311
36 -410 14z m33 -101 c-18 -14 -56 -47 -84 -72 -27 -25 -17 -13 23 27 40 39
78 72 84 72 6 0 -4 -12 -23 -27z m186 -20 c-27 -20 -73 -57 -103 -82 -61 -51
-60 -38 1 17 48 43 130 102 142 102 5 0 -13 -17 -40 -37z m192 -36 c-101 -76
-118 -87 -115 -78 5 14 121 101 134 100 6 0 -3 -10 -19 -22z m1441 -428 c-10
-6 -57 -24 -104 -40 -47 -16 -90 -32 -97 -37 -6 -5 -20 -12 -31 -15 -39 -13
15 21 59 38 146 54 172 63 181 64 6 0 2 -4 -8 -10z m-2330 -139 c68 -144 4
-314 -142 -384 -73 -34 -90 -33 -34 2 165 105 212 321 102 469 -35 48 -27 53
13 8 20 -22 47 -65 61 -95z m-344 78 c22 -27 22 -53 -3 -78 -26 -26 -51 -25
-84 1 -33 26 -35 71 -3 94 27 19 65 12 90 -17z m2635 7 c-9 -9 -151 -55 -167
-54 -9 1 22 14 69 30 84 28 108 34 98 24z m-1633 -141 c39 -9 76 -16 83 -17
18 -1 17 -4 -39 -73 -117 -147 -257 -226 -399 -223 -44 0 -43 1 30 19 92 23
157 50 217 91 50 35 183 157 183 169 0 10 -128 30 -195 30 -69 0 -182 -16
-253 -37 -66 -18 -78 -12 -20 12 112 45 270 57 393 29z m-235 -139 c-36 -7
-77 -15 -92 -20 -48 -13 -30 4 20 19 26 8 67 14 92 14 43 0 42 -1 -20 -13z
m1780 -25 c22 -11 40 -23 40 -25 0 -7 -73 24 -84 36 -16 15 2 11 44 -11z m27
-61 c65 -40 125 -78 133 -87 19 -18 16 -17 -100 51 -94 55 -170 107 -157 107
4 0 60 -32 124 -71z m-1798 7 c-2 -2 -33 -6 -69 -10 -44 -4 -60 -3 -50 4 14 9
129 15 119 6z"/>
<path d="M7270 6945 c-104 -29 -128 -30 -160 -5 -14 11 -28 20 -32 20 -12 0
-208 -288 -208 -306 0 -23 76 -139 83 -127 4 6 27 150 27 169 0 2 13 4 29 4
39 0 81 16 108 42 l21 20 134 -22 c200 -34 296 -21 371 48 34 32 35 71 2 110
-59 70 -224 91 -375 47z"/>
<path d="M3620 6344 c0 -18 54 -153 91 -226 287 -571 856 -920 1459 -895 590
25 1109 366 1370 902 71 145 71 135 -2 181 -34 21 -66 40 -69 42 -4 2 -13 -14
-19 -35 -36 -111 -175 -346 -240 -408 l-32 -30 -16 25 c-33 50 -79 88 -121
100 -24 6 -61 28 -85 50 l-43 40 -56 -43 c-31 -23 -56 -45 -57 -48 0 -3 25
-33 55 -66 31 -35 55 -71 55 -83 0 -12 23 -46 56 -81 l57 -59 -24 -20 c-49
-42 -187 -129 -264 -168 -97 -48 -251 -99 -360 -118 -129 -23 -125 -24 -125
49 0 45 -6 71 -21 96 -20 33 -20 36 -5 175 20 186 23 281 8 280 -7 -1 -32 -2
-57 -2 l-44 -2 19 -42 c21 -47 25 -103 10 -142 -12 -34 -66 -66 -109 -66 l-33
0 6 -82 c6 -70 4 -89 -11 -118 -12 -23 -18 -57 -18 -98 l0 -64 -65 7 c-158 17
-358 87 -510 178 -81 48 -190 125 -190 133 0 3 20 25 45 50 24 25 49 62 56 82
7 22 41 68 85 113 41 42 74 81 74 87 0 18 -25 30 -75 37 -27 3 -60 8 -71 10
-16 4 -37 -8 -72 -40 -31 -28 -59 -45 -75 -45 -26 0 -63 -31 -110 -90 l-27
-35 -30 35 c-54 63 -127 174 -171 259 l-44 83 -97 49 c-54 27 -98 46 -98 43z"/>
<path d="M5850 6320 c-30 -16 -106 -53 -168 -82 l-112 -53 90 -54 90 -53 56
33 c54 33 204 164 204 178 0 10 -79 61 -93 61 -7 0 -37 -14 -67 -30z"/>
<path d="M4710 4002 c0 -5 9 -17 20 -27 19 -17 20 -31 20 -231 l0 -214 -25
-16 c-14 -9 -22 -20 -19 -25 3 -5 81 -9 174 -9 188 0 174 -6 185 83 9 69 0 72
-52 18 -33 -34 -46 -40 -95 -46 l-58 -6 0 220 c0 210 1 221 20 231 40 22 19
30 -75 30 -52 0 -95 -4 -95 -8z"/>
<path d="M5156 4001 c-3 -5 5 -16 19 -25 l25 -16 0 -215 0 -215 -25 -16 c-14
-9 -25 -20 -25 -25 0 -5 81 -9 179 -9 201 0 183 -8 200 83 12 64 -3 69 -48 17
-34 -40 -39 -42 -103 -47 l-68 -6 0 102 0 101 39 0 c31 0 43 -6 59 -27 11 -16
23 -26 25 -23 3 3 8 35 11 73 6 59 5 67 -10 67 -9 0 -22 -7 -28 -15 -6 -8 -30
-17 -53 -21 l-43 -7 0 92 0 91 53 0 c50 0 56 -3 93 -42 l39 -43 3 54 c2 29 1
60 -2 67 -4 11 -40 14 -170 14 -91 0 -167 -4 -170 -9z"/>
<path d="M626 3294 c-8 -22 -10 -20 29 -44 19 -12 40 -30 45 -40 9 -17 -13
-695 -25 -767 -4 -20 -18 -41 -37 -56 -21 -17 -29 -30 -25 -41 9 -24 237 -24
237 0 0 8 -13 26 -29 40 -16 13 -32 37 -35 52 -4 15 1 146 9 292 8 146 15 276
16 290 0 15 3 19 6 10 65 -175 244 -634 257 -658 14 -28 22 -33 47 -30 30 3
31 5 141 298 61 162 118 319 127 347 9 29 18 53 21 53 3 0 7 -26 8 -57 1 -32
9 -163 17 -292 16 -252 12 -286 -34 -311 -12 -6 -21 -20 -21 -30 0 -19 8 -20
150 -20 173 0 186 7 126 63 -27 26 -36 42 -36 68 0 19 -9 169 -20 334 -11 165
-20 322 -20 348 0 49 7 60 70 111 23 18 23 19 5 32 -24 18 -200 19 -235 1 -16
-8 -32 -32 -47 -72 -12 -33 -65 -175 -117 -315 -70 -190 -96 -250 -102 -235
-63 168 -239 606 -250 623 -14 21 -21 22 -143 22 -108 0 -130 -3 -135 -16z"/>
<path d="M2104 3301 c-28 -12 -97 -109 -90 -127 11 -29 60 -15 124 36 62 51
81 90 45 90 -10 0 -27 2 -38 5 -11 2 -29 0 -41 -4z"/>
<path d="M7970 3300 c-24 -14 -93 -118 -85 -130 15 -24 62 -9 121 39 34 28 64
57 68 66 10 27 -68 46 -104 25z"/>
<path d="M3568 3102 l-38 -3 0 -89 c0 -49 4 -91 9 -94 18 -12 36 5 64 58 25
47 33 54 65 60 80 13 73 44 70 -310 l-3 -316 -27 -22 c-49 -39 -37 -45 97 -48
69 -2 130 -1 135 0 18 6 11 26 -17 48 l-28 22 -3 311 c-3 348 -7 333 67 315
31 -8 40 -17 66 -71 31 -66 50 -82 72 -60 11 11 12 34 7 105 l-7 92 -161 0
c-89 1 -199 2 -246 3 -47 1 -102 1 -122 -1z"/>
<path d="M4943 3102 c-123 -2 -133 -4 -133 -22 0 -10 9 -22 21 -25 11 -4 24
-18 30 -32 5 -13 9 -155 9 -315 l0 -290 -30 -28 c-16 -15 -30 -33 -30 -39 0
-14 266 -15 275 -2 3 6 -2 16 -10 23 -57 46 -55 40 -55 173 0 125 0 125 24
125 31 0 36 -7 102 -141 30 -63 68 -127 82 -142 46 -49 122 -69 190 -51 24 7
32 44 9 44 -27 0 -78 69 -142 192 l-66 126 36 22 c105 65 134 210 60 299 -58
69 -145 88 -372 83z m198 -95 c48 -32 60 -62 56 -134 -2 -49 -8 -68 -27 -88
-27 -28 -83 -49 -120 -43 -25 3 -25 3 -28 132 -1 72 0 136 2 143 9 22 79 16
117 -10z"/>
<path d="M1810 3080 c0 -11 6 -20 13 -20 8 0 21 -8 30 -18 15 -16 17 -54 17
-321 l0 -303 -30 -28 c-16 -15 -30 -35 -30 -44 0 -15 25 -16 247 -14 l248 3
11 50 c7 28 13 76 13 108 1 69 -9 71 -54 7 -47 -67 -69 -78 -167 -86 l-88 -7
0 142 0 141 60 0 c59 0 61 -1 81 -35 36 -61 47 -47 51 66 2 80 0 103 -11 107
-8 3 -20 -3 -27 -14 -28 -41 -35 -44 -94 -44 l-60 0 0 131 0 132 74 -5 c81 -5
105 -18 142 -72 37 -55 54 -48 54 23 0 32 -3 73 -6 90 l-6 31 -234 0 c-227 0
-234 -1 -234 -20z"/>
<path d="M2420 3086 c0 -8 11 -23 24 -31 44 -29 47 -53 44 -359 l-3 -287 -32
-27 c-59 -48 -39 -54 163 -50 179 3 180 3 245 35 81 40 140 102 182 191 30 63
32 74 32 178 0 107 -1 113 -35 180 -25 49 -49 79 -85 106 -80 61 -124 71 -342
76 -171 3 -193 2 -193 -12z m384 -96 c66 -42 97 -111 103 -229 9 -158 -36
-295 -109 -333 -44 -23 -136 -27 -149 -6 -5 7 -9 145 -9 306 l0 292 58 0 c47
0 67 -6 106 -30z"/>
<path d="M3164 3089 c-3 -6 9 -23 27 -39 l34 -28 0 -306 0 -307 -33 -25 c-18
-14 -30 -30 -27 -35 4 -5 67 -9 141 -9 110 0 134 3 134 14 0 8 -13 24 -30 36
l-30 21 0 305 0 304 30 31 c16 18 27 35 24 40 -8 13 -261 11 -270 -2z"/>
<path d="M4190 3080 c0 -11 6 -20 13 -20 8 0 21 -8 30 -18 15 -16 17 -54 17
-321 l0 -303 -30 -28 c-60 -56 -44 -60 241 -57 l214 2 12 36 c16 50 21 174 7
174 -6 0 -27 -20 -45 -44 -52 -67 -73 -78 -166 -85 l-83 -6 0 140 0 140 60 0
c59 0 61 -1 82 -35 32 -56 43 -40 46 73 2 92 1 102 -15 102 -10 0 -26 -14 -35
-30 -16 -28 -21 -30 -78 -30 l-60 0 0 130 0 130 60 0 c80 0 123 -19 156 -69
43 -66 55 -56 52 47 l-3 87 -237 3 c-233 2 -238 2 -238 -18z"/>
<path d="M5500 3086 c0 -9 13 -22 30 -31 20 -10 31 -25 35 -48 3 -17 5 -159 3
-315 -3 -271 -4 -284 -23 -297 -37 -26 -47 -37 -38 -46 4 -4 65 -9 136 -10
139 -3 166 5 127 38 -51 42 -50 39 -50 169 l0 125 28 -3 c24 -3 34 -17 87
-125 33 -67 74 -136 90 -154 49 -51 116 -71 183 -53 28 8 29 40 2 49 -25 8
-61 61 -135 199 l-58 110 23 15 c92 62 132 148 109 234 -16 60 -40 89 -101
123 -53 29 -53 29 -250 32 -174 3 -198 2 -198 -12z m361 -94 c48 -54 49 -172
2 -214 -24 -21 -91 -39 -120 -32 -23 6 -23 8 -23 146 l0 140 57 -4 c47 -4 61
-10 84 -36z"/>
<path d="M6396 3091 c-3 -5 3 -20 14 -34 11 -14 20 -33 20 -44 0 -10 -43 -147
-96 -305 -89 -268 -98 -290 -131 -317 -58 -48 -42 -61 76 -61 62 0 102 4 107
11 3 6 -8 24 -25 39 -33 31 -34 48 -6 130 l12 35 122 5 c140 6 131 11 152 -84
l13 -59 -29 -22 c-18 -15 -26 -29 -22 -39 5 -14 26 -16 136 -16 152 0 164 8
103 68 -35 34 -47 63 -147 357 -59 176 -112 326 -118 333 -11 14 -173 17 -181
3z m148 -325 l45 -126 -95 0 c-73 0 -95 3 -92 13 2 6 22 69 44 138 22 73 42
121 46 114 4 -7 28 -69 52 -139z"/>
<path d="M6925 3090 c-4 -7 7 -24 26 -40 l34 -28 3 -297 3 -297 -37 -34 c-56
-53 -44 -64 76 -64 119 0 135 13 79 60 l-34 28 -1 231 c-1 127 1 231 5 231 4
0 92 -120 196 -266 110 -155 199 -271 213 -277 49 -23 52 -5 52 360 l0 333 25
22 c46 40 34 48 -70 48 -108 0 -116 -7 -65 -58 l30 -30 0 -191 c0 -121 -4
-191 -10 -191 -5 0 -10 4 -10 8 0 5 -73 109 -163 233 l-163 224 -91 3 c-60 2
-94 -1 -98 -8z"/>
<path d="M7690 3080 c0 -11 5 -20 10 -20 6 0 19 -9 30 -20 19 -19 20 -33 20
-321 l0 -301 -31 -29 c-60 -56 -47 -59 220 -59 196 0 240 3 244 14 11 28 29
176 23 191 -9 25 -21 17 -60 -39 -43 -63 -63 -73 -168 -82 l-78 -6 0 141 0
141 58 0 c65 0 73 -4 89 -42 7 -16 19 -28 28 -28 12 0 15 18 15 105 0 86 -3
105 -15 105 -8 0 -20 -10 -26 -22 -17 -33 -28 -38 -91 -38 l-58 0 0 130 0 130
60 0 c79 0 123 -19 157 -69 44 -63 53 -54 53 49 l0 90 -240 0 c-233 0 -240 -1
-240 -20z"/>
<path d="M8304 3088 c-4 -7 0 -16 11 -22 58 -34 56 -20 53 -352 l-3 -304 -29
-24 c-20 -15 -27 -28 -23 -39 6 -15 32 -17 246 -17 l240 0 11 38 c17 58 24
168 12 176 -6 4 -29 -17 -52 -48 -22 -31 -48 -60 -58 -65 -10 -5 -57 -13 -105
-17 l-87 -7 0 142 0 141 60 0 c59 0 61 -1 81 -35 38 -63 49 -47 49 70 0 116
-8 129 -48 75 -21 -28 -27 -30 -85 -30 l-62 0 2 103 c2 177 -6 157 63 157 80
0 123 -19 156 -69 43 -66 55 -56 52 47 l-3 87 -237 3 c-176 2 -238 -1 -244
-10z"/>
<path d="M8920 3085 c0 -8 15 -28 33 -44 l32 -29 0 -296 0 -295 -34 -35 c-18
-19 -30 -39 -27 -45 5 -7 45 -11 102 -11 111 0 126 12 75 59 -35 33 -34 24
-35 313 -1 98 2 177 6 175 7 -2 116 -154 298 -415 81 -117 112 -145 139 -127
8 4 11 116 11 340 l0 334 30 34 c17 19 30 40 30 46 0 7 -33 11 -100 11 -90 0
-100 -2 -100 -18 0 -10 11 -25 25 -32 13 -7 28 -23 31 -34 6 -19 7 -376 1
-382 -1 -1 -44 57 -94 129 -51 73 -126 179 -168 235 l-75 102 -90 0 c-74 0
-90 -3 -90 -15z"/>
<path d="M3867 1850 c-177 -45 -282 -203 -256 -384 24 -169 138 -273 310 -284
230 -14 393 149 377 375 -13 173 -137 290 -316 299 -42 2 -94 -1 -115 -6z
m174 -87 c20 -13 49 -47 65 -76 24 -45 29 -66 32 -148 5 -121 -13 -189 -66
-249 -33 -37 -44 -43 -88 -47 -86 -9 -160 42 -194 134 -94 253 71 507 251 386z"/>
<path d="M4450 1837 c0 -7 11 -19 25 -25 14 -7 30 -23 35 -38 13 -32 13 -445
0 -499 -5 -22 -14 -41 -20 -43 -18 -6 -40 -33 -35 -43 9 -14 252 -12 261 3 4
6 -6 22 -24 37 -33 28 -35 37 -33 164 l1 67 29 0 c26 0 33 -8 76 -92 65 -125
81 -147 129 -169 63 -29 166 -23 155 9 -2 6 -19 21 -38 34 -22 15 -56 61 -98
133 -56 98 -62 111 -47 120 36 21 86 69 100 96 21 41 18 127 -5 166 -11 17
-41 44 -68 60 -48 28 -49 28 -245 31 -166 3 -198 1 -198 -11z m328 -67 c73
-45 82 -171 15 -215 -27 -18 -133 -33 -134 -19 -6 67 -4 223 3 237 12 24 74
22 116 -3z"/>
<path d="M5380 1837 c0 -8 7 -20 15 -27 8 -7 15 -23 15 -36 0 -22 -157 -461
-180 -505 -6 -10 -24 -26 -40 -36 -17 -9 -30 -25 -30 -35 0 -17 9 -18 107 -16
111 3 140 16 89 39 -35 16 -40 41 -21 100 l17 50 116 -3 115 -3 20 -58 c20
-60 14 -87 -19 -87 -8 0 -14 -9 -14 -20 0 -20 5 -20 132 -18 109 2 133 6 135
18 2 8 -12 24 -30 35 -29 19 -41 45 -142 315 l-110 295 -88 3 c-70 2 -87 0
-87 -11z m173 -389 c-6 -11 -173 -10 -173 1 0 5 19 62 42 127 l41 117 47 -119
c26 -66 45 -122 43 -126z"/>
<path d="M5978 1843 c-26 -7 -22 -20 17 -57 l35 -33 0 -251 0 -251 -30 -23
c-53 -39 -41 -48 70 -48 92 0 100 2 100 19 0 11 -9 23 -21 26 -11 4 -24 18
-30 32 -11 29 -12 403 -1 402 4 0 90 -105 192 -234 266 -336 263 -337 259 63
l-3 284 33 28 c20 16 31 32 27 38 -9 14 -192 17 -201 3 -3 -5 11 -25 30 -43
l36 -33 -3 -169 -3 -168 -163 205 c-134 168 -169 206 -194 211 -34 7 -123 6
-150 -1z"/>
<path d="M1930 1555 l0 -25 585 0 585 0 0 25 0 25 -585 0 -585 0 0 -25z"/>
<path d="M7140 1555 l0 -25 585 0 585 0 0 25 0 25 -585 0 -585 0 0 -25z"/>
</g>
</svg>
