<svg width="1586" height="561" viewBox="0 0 1586 561" fill="none" xmlns="http://www.w3.org/2000/svg">
<g opacity="0.3">
<path d="M272.172 76.038C266.844 80.4594 266.025 89.3021 269.303 106.103L269.729 108.262C270.407 111.696 269.85 115.259 268.156 118.322V118.322C266.025 122.02 265.533 123.869 265.533 127.647V127.647C265.533 130.374 263.539 132.691 260.843 133.098L255.943 133.837C227.748 137.857 202.585 148.387 182.34 164.546L179.464 166.862C178.529 167.616 177.154 167.44 176.438 166.475V166.475C174.799 164.144 170.537 162.455 166.439 162.455C163.324 162.455 162.996 162.214 160.701 158.195C151.275 141.796 144.144 134.882 135.21 133.757C132.67 133.435 131.686 133.757 129.391 135.766C127.014 137.857 126.604 138.66 126.686 141.715C126.85 148.468 133.817 156.587 147.505 166.073C154.226 170.735 154.882 171.539 154.882 175.398C154.882 178.212 156.521 181.588 158.898 183.678V183.678C159.84 184.514 159.906 185.964 159.042 186.881L158.652 187.295C154.718 191.395 144.144 207.634 140.128 215.833C133.161 229.982 127.178 249.837 125.703 263.423L125.59 264.405C125.322 266.73 123.446 268.542 121.113 268.729V268.729C118.244 269.05 115.867 269.935 113.244 271.783V271.783C110.852 273.466 107.842 274.014 105.011 273.282L102.015 272.507C91.7695 269.854 78.9832 269.774 73.9834 272.427C69.8032 274.597 68 276.928 68 280.305C68 288.665 79.9667 291.8 100.212 288.826C108.982 287.54 110.949 287.459 112.506 288.343C116.687 290.835 119.719 291.881 122.342 291.881V291.881C123.915 291.881 125.223 293.091 125.344 294.659L125.621 298.231C127.67 324.357 141.03 355.87 159.062 377.172L160.068 378.367C161.252 379.772 161.134 381.857 159.8 383.121V383.121C156.849 385.935 154.882 389.874 154.882 393.009C154.882 395.179 154.062 395.983 147.915 400.003C134.637 408.604 128.325 415.92 127.26 423.717C126.85 426.45 127.178 427.174 129.309 429.344C135.538 435.454 146.521 429.264 156.521 414.071C162.996 404.263 162.75 404.504 167.258 403.942C171.275 403.379 177.832 399.681 177.832 397.993C177.832 397.511 180.291 399.118 183.405 401.45C194.798 410.453 208.486 418.251 222.502 423.717C231.108 427.094 248.321 431.354 258.402 432.64L262.203 433.102C264.571 433.389 266.353 435.399 266.353 437.785V437.785C266.353 441.001 266.844 442.689 268.566 445.101V445.101C269.934 447.113 270.474 449.575 270.075 451.975L268.894 459.088C266.926 471.227 266.762 474.925 268.074 479.507C270.205 486.902 277.828 489.796 282.745 484.973C287.09 480.632 287.745 474.442 285.45 458.525L284.748 453.622C284.298 450.483 284.83 447.282 286.27 444.457V444.457C287.581 441.885 288.483 438.83 288.483 436.901V436.901C288.483 435.052 289.834 433.48 291.662 433.202L297.991 432.238C324.547 428.38 352.907 416 372.332 399.922L372.437 399.835C374.135 398.433 376.626 398.576 378.151 400.164V400.164C380.528 402.736 381.43 403.138 385.528 403.459C390.692 403.861 390.036 403.218 396.757 413.588C401.429 420.743 408.314 427.656 412.822 429.746C414.543 430.55 417.412 431.354 419.297 431.595C422.248 431.917 423.068 431.595 425.035 429.746C427.002 427.817 427.166 427.174 426.756 423.557C425.854 416 420.445 409.649 408.068 401.691C399.38 396.064 398.315 394.938 398.315 391.803C398.315 388.588 397.249 386.417 394.462 383.443V383.443C393.329 382.238 393.237 380.389 394.245 379.078L399.298 372.51C406.593 362.944 412.084 353.94 416.592 343.731C418.232 340.194 419.461 337.3 419.379 337.22C419.297 337.139 415.691 335.612 411.429 333.763C406.839 331.753 403.56 330.708 403.396 331.271C403.232 331.753 401.347 335.612 399.216 339.953C379.545 379.263 342.087 407.157 299.056 414.473C290.368 416 265.943 416.161 256.599 414.875C214.142 409.006 175.209 379.825 155.21 338.988C152.833 334.084 149.718 326.689 148.325 322.508C147.013 318.409 144.964 313.987 143.817 312.701C141.522 309.968 140.538 305.948 141.358 302.492C141.604 301.045 141.522 299.839 141.03 299.517C139.882 298.874 139.882 293.729 140.948 293.086C141.44 292.765 141.768 288.504 141.768 282.877C141.768 258.359 148.734 233.84 161.603 213.261C181.356 181.588 212.748 159.803 250.206 151.844C261.435 149.433 289.712 149.272 300.941 151.442C343.727 159.883 377.496 184.482 397.331 221.862C402.331 231.268 408.232 246.702 409.38 253.133C409.953 256.429 410.117 256.67 412.166 256.269C413.314 256.108 417.084 255.465 420.445 254.822V254.822C424.634 254.12 426.476 251.556 425.447 247.434C425.291 246.811 425.126 246.162 424.953 245.497C420.609 227.731 410.199 206.589 398.56 191.636L395.256 187.383C394.125 185.927 394.17 183.877 395.364 182.472V182.472C396.511 181.186 397.823 178.533 398.315 176.684C398.806 174.835 399.38 172.906 399.544 172.343C399.708 171.861 403.478 168.726 407.904 165.43C424.461 153.13 430.608 142.599 425.035 136.168C423.395 134.32 422.412 133.918 419.379 133.998C412.248 134.159 405.855 139.545 397.167 152.809C391.266 161.732 390.446 162.455 386.102 162.455C382.168 162.455 377.332 164.706 376.512 166.877C376.102 167.841 375.201 167.439 372.168 165.028C350.694 147.744 323.727 136.812 292.991 133.033L292.898 133.022C290.663 132.759 289.038 130.774 289.221 128.532V128.532C289.385 125.236 288.975 123.628 286.352 118.724L285.954 117.955C284.259 114.674 283.845 110.878 284.795 107.309V107.309C286.926 99.0291 287.417 85.3631 285.696 80.8613C283.073 74.1087 277.09 72.0186 272.172 76.038Z" fill="white"/>
<path d="M254.058 156.909C237.337 159.963 218.813 167.359 203.978 177.006C198.978 180.221 192.995 185.286 186.848 191.315C161.767 216.155 149.472 243.085 147.013 278.295V278.295C146.791 281.431 150.386 283.352 152.87 281.424L153.898 280.626L158.442 277.139C160.331 275.688 161.439 273.442 161.439 271.06V271.06C161.521 262.298 166.848 244.451 172.914 232.393C176.684 224.997 184.225 213.904 187.995 210.045V210.045C188.981 209.078 190.6 209.23 191.389 210.363L192.175 211.492C195.208 215.753 197.749 217.682 201.683 218.727C204.142 219.37 205.617 220.656 208.322 224.194C210.207 226.686 213.978 231.027 216.682 233.84C221.518 238.824 221.6 238.824 223.24 237.297C224.223 236.493 227.174 234.403 229.879 232.715C232.583 231.027 234.96 229.499 235.124 229.419C235.862 228.936 230.37 223.952 222.256 217.843C214.633 211.975 213.814 211.09 212.83 207.714C211.847 204.016 209.224 200.72 204.634 197.183V197.183C203.42 196.321 203.328 194.553 204.446 193.57L204.634 193.405C211.683 187.215 226.846 179.096 238.485 175.157C246.435 172.504 259.386 169.69 263.812 169.69V169.69C265.441 169.69 266.762 171.011 266.762 172.641V174.835C266.762 178.935 267.172 180.543 268.648 182.472C270.451 184.884 270.451 185.286 269.713 193.566C269.221 198.389 268.648 206.508 268.402 211.653L268.22 215.163C268.051 218.412 270.64 221.139 273.893 221.139V221.139C277.172 221.219 281.434 221.541 283.401 221.862C285.778 222.345 286.843 222.264 286.843 221.621C286.843 216.878 284.958 193.244 284.385 189.948C283.647 186.09 283.811 185.446 285.368 183.276C286.762 181.507 287.253 179.417 287.499 175.317L287.651 172.718C287.75 171.018 289.157 169.69 290.86 169.69V169.69C294.63 169.69 311.924 173.79 318.891 176.363C328.563 179.98 342.087 187.456 349.956 193.726V193.726C350.988 194.528 351.059 196.063 350.105 196.956L346.431 200.399C341.841 204.659 340.94 205.945 340.94 208.035C340.94 210.367 340.12 211.331 334.628 215.672C327.498 221.3 317.17 230.785 317.17 231.589C317.17 232.072 330.366 241.155 332.17 241.959C332.989 242.281 333.235 241.959 342.169 229.338C344.207 226.489 346.13 223.887 347.539 222.068C348.948 220.247 350.944 219.285 353.234 219.049V219.049C356.349 218.727 359.791 215.592 362.496 210.688C363.89 208.116 363.972 208.116 365.611 209.563C367.906 211.573 374.463 220.496 378.151 226.605C382.823 234.242 387.577 245.496 390.036 254.902V254.902C391.594 260.809 395.655 263.257 401.198 260.689C403.258 259.735 404.872 258.849 404.872 258.519C404.872 258.037 403.97 254.58 402.904 250.722C391.02 208.437 361.513 177.327 318.4 161.812C300.286 155.301 273.975 153.291 254.058 156.909Z" fill="white"/>
<path d="M261.025 230.464C254.14 231.991 245.616 235.448 240.288 238.905C238.157 240.271 233.075 244.773 229.059 248.873C221.928 256.027 221.354 256.429 215.535 258.037C196.109 263.584 180.864 270.578 164.553 281.43C151.275 290.273 146.275 294.372 146.849 296.061C147.341 297.186 151.193 298.874 164.717 303.617V303.617C165.764 303.996 165.492 305.546 164.379 305.546H160.127C152.259 305.546 149.964 305.788 149.144 306.752C147.423 308.762 150.21 310.852 161.029 315.997C180.864 325.402 203.896 332.316 221.272 334.165C226.6 334.727 226.6 334.727 233.157 340.998C236.763 344.535 241.108 348.313 242.911 349.438C251.025 354.905 264.795 360.21 270.697 360.21C274.631 360.21 274.549 358.683 270.533 350.564C267.582 344.696 265.861 342.364 263.156 340.274C260.287 338.184 259.959 337.702 261.599 338.104C264.959 338.988 286.679 336.898 295.859 334.969C308.564 332.155 317.17 328.698 337.251 318.248C347.415 312.942 357.414 308.28 360.201 307.556C370.365 304.984 377.414 306.27 387.413 312.621C408.314 325.643 427.493 333.361 430.362 329.904C431.92 328.136 430.608 325.563 423.067 314.952C414.215 302.733 413.56 301.286 414.051 295.257C414.461 289.469 416.592 285.047 423.887 275.24C430.69 265.995 431.51 264.307 429.788 262.539C428.149 260.931 426.92 261.011 419.871 262.941C411.592 265.192 403.888 268.327 390.036 274.999C379.299 280.144 377.332 280.787 372.004 281.189C364.299 281.751 358.398 280.305 345.857 274.838C340.694 272.587 332.579 269.211 327.907 267.282L327.12 266.973C324.125 265.798 323.953 261.624 326.842 260.207V260.207C331.022 258.198 334.383 256.027 334.383 255.384C334.383 253.937 327.334 247.667 320.94 243.406C314.219 238.985 302.417 233.599 294.63 231.589C285.86 229.258 269.139 228.695 261.025 230.464ZM263.73 238.583C262.254 239.708 259.14 242.361 256.845 244.371C254.632 246.381 255.451 245.416 258.73 242.2C262.008 239.065 265.123 236.413 265.615 236.413C266.107 236.413 265.287 237.377 263.73 238.583ZM278.975 240.191C276.762 241.799 272.992 244.773 270.533 246.783C265.533 250.882 265.615 249.837 270.615 245.416C274.549 241.959 281.27 237.216 282.253 237.216C282.663 237.216 281.188 238.583 278.975 240.191ZM294.712 243.085C286.434 249.194 285.04 250.079 285.286 249.355C285.696 248.23 295.204 241.236 296.269 241.316C296.761 241.316 296.023 242.12 294.712 243.085ZM412.822 277.491C412.002 277.973 408.15 279.42 404.298 280.706C400.445 281.993 396.921 283.279 396.347 283.681C395.855 284.083 394.708 284.645 393.806 284.887C390.61 285.932 395.036 283.198 398.642 281.832C410.609 277.491 412.74 276.767 413.478 276.687C413.969 276.687 413.642 277.009 412.822 277.491ZM221.846 288.665C227.42 300.241 222.174 313.907 210.207 319.534C204.224 322.267 202.83 322.187 207.42 319.373C220.944 310.932 224.797 293.569 215.781 281.671C212.912 277.812 213.568 277.411 216.846 281.028C218.486 282.797 220.699 286.253 221.846 288.665ZM193.65 282.395C195.454 284.565 195.454 286.655 193.405 288.665C191.274 290.755 189.224 290.675 186.52 288.585C183.815 286.494 183.651 282.877 186.274 281.028C188.487 279.501 191.601 280.063 193.65 282.395ZM409.625 281.832C408.888 282.555 397.249 286.253 395.937 286.173C395.2 286.092 397.741 285.047 401.593 283.761C408.478 281.51 410.445 281.028 409.625 281.832ZM275.778 293.167C278.975 293.89 282.008 294.453 282.581 294.533C284.057 294.614 283.975 294.855 279.385 300.402C269.795 312.219 258.32 318.569 246.681 318.328C243.075 318.328 243.157 318.248 249.14 316.801C256.681 314.952 262.008 312.781 266.926 309.485C271.024 306.672 281.926 296.864 281.926 295.9C281.926 295.096 271.434 293.488 265.943 293.488C260.287 293.488 251.025 294.774 245.206 296.463C239.796 297.91 238.813 297.427 243.566 295.498C252.746 291.88 265.697 290.916 275.778 293.167ZM256.517 304.341C253.566 304.903 250.206 305.546 248.976 305.948C245.042 306.993 246.517 305.627 250.615 304.421C252.746 303.778 256.107 303.296 258.156 303.296C261.681 303.296 261.599 303.376 256.517 304.341ZM402.413 306.35C404.216 307.235 405.691 308.199 405.691 308.36C405.691 308.923 399.708 306.431 398.806 305.466C397.495 304.26 398.97 304.582 402.413 306.35ZM404.626 311.254C409.953 314.47 414.871 317.524 415.527 318.248C417.084 319.695 416.838 319.614 407.33 314.148C399.626 309.727 393.396 305.546 394.462 305.546C394.79 305.546 399.38 308.119 404.626 311.254ZM257.254 310.691C257.091 310.852 254.55 311.174 251.599 311.495C247.993 311.817 246.681 311.736 247.501 311.174C248.648 310.45 258.074 309.968 257.254 310.691Z" fill="white"/>
<path d="M261.025 230.464C254.14 231.991 245.616 235.448 240.288 238.905C238.157 240.271 233.075 244.773 229.059 248.873C221.928 256.027 221.354 256.429 215.535 258.037C196.109 263.584 180.864 270.578 164.553 281.43C151.275 290.273 146.275 294.372 146.849 296.061C147.341 297.186 151.193 298.874 164.717 303.617V303.617C165.764 303.996 165.492 305.546 164.379 305.546H160.127C152.259 305.546 149.964 305.788 149.144 306.752C147.423 308.762 150.21 310.852 161.029 315.997C180.864 325.402 203.896 332.316 221.272 334.165C226.6 334.727 226.6 334.727 233.157 340.998C236.763 344.535 241.108 348.313 242.911 349.438C251.025 354.905 264.795 360.21 270.697 360.21C274.631 360.21 274.549 358.683 270.533 350.564C267.582 344.696 265.861 342.364 263.156 340.274C260.287 338.184 259.959 337.702 261.599 338.104C264.959 338.988 286.679 336.898 295.859 334.969C308.564 332.155 317.17 328.698 337.251 318.248C347.415 312.942 357.414 308.28 360.201 307.556C370.365 304.984 377.414 306.27 387.413 312.621C408.314 325.643 427.493 333.361 430.362 329.904C431.92 328.136 430.608 325.563 423.067 314.952C414.215 302.733 413.56 301.286 414.051 295.257C414.461 289.469 416.592 285.047 423.887 275.24C430.69 265.995 431.51 264.307 429.788 262.539C428.149 260.931 426.92 261.011 419.871 262.941C411.592 265.192 403.888 268.327 390.036 274.999C379.299 280.144 377.332 280.787 372.004 281.189C364.299 281.751 358.398 280.305 345.857 274.838C340.694 272.587 332.579 269.211 327.907 267.282L327.12 266.973C324.125 265.798 323.953 261.624 326.842 260.207V260.207C331.022 258.198 334.383 256.027 334.383 255.384C334.383 253.937 327.334 247.667 320.94 243.406C314.219 238.985 302.417 233.599 294.63 231.589C285.86 229.258 269.139 228.695 261.025 230.464ZM263.73 238.583C262.254 239.708 259.14 242.361 256.845 244.371C254.632 246.381 255.451 245.416 258.73 242.2C262.008 239.065 265.123 236.413 265.615 236.413C266.107 236.413 265.287 237.377 263.73 238.583ZM278.975 240.191C276.762 241.799 272.992 244.773 270.533 246.783C265.533 250.882 265.615 249.837 270.615 245.416C274.549 241.959 281.27 237.216 282.253 237.216C282.663 237.216 281.188 238.583 278.975 240.191ZM294.712 243.085C286.434 249.194 285.04 250.079 285.286 249.355C285.696 248.23 295.204 241.236 296.269 241.316C296.761 241.316 296.023 242.12 294.712 243.085ZM412.822 277.491C412.002 277.973 408.15 279.42 404.298 280.706C400.445 281.993 396.921 283.279 396.347 283.681C395.855 284.083 394.708 284.645 393.806 284.887C390.61 285.932 395.036 283.198 398.642 281.832C410.609 277.491 412.74 276.767 413.478 276.687C413.969 276.687 413.642 277.009 412.822 277.491ZM221.846 288.665C227.42 300.241 222.174 313.907 210.207 319.534C204.224 322.267 202.83 322.187 207.42 319.373C220.944 310.932 224.797 293.569 215.781 281.671C212.912 277.812 213.568 277.411 216.846 281.028C218.486 282.797 220.699 286.253 221.846 288.665ZM193.65 282.395C195.454 284.565 195.454 286.655 193.405 288.665C191.274 290.755 189.224 290.675 186.52 288.585C183.815 286.494 183.651 282.877 186.274 281.028C188.487 279.501 191.601 280.063 193.65 282.395ZM409.625 281.832C408.888 282.555 397.249 286.253 395.937 286.173C395.2 286.092 397.741 285.047 401.593 283.761C408.478 281.51 410.445 281.028 409.625 281.832ZM275.778 293.167C278.975 293.89 282.008 294.453 282.581 294.533C284.057 294.614 283.975 294.855 279.385 300.402C269.795 312.219 258.32 318.569 246.681 318.328C243.075 318.328 243.157 318.248 249.14 316.801C256.681 314.952 262.008 312.781 266.926 309.485C271.024 306.672 281.926 296.864 281.926 295.9C281.926 295.096 271.434 293.488 265.943 293.488C260.287 293.488 251.025 294.774 245.206 296.463C239.796 297.91 238.813 297.427 243.566 295.498C252.746 291.88 265.697 290.916 275.778 293.167ZM256.517 304.341C253.566 304.903 250.206 305.546 248.976 305.948C245.042 306.993 246.517 305.627 250.615 304.421C252.746 303.778 256.107 303.296 258.156 303.296C261.681 303.296 261.599 303.376 256.517 304.341ZM402.413 306.35C404.216 307.235 405.691 308.199 405.691 308.36C405.691 308.923 399.708 306.431 398.806 305.466C397.495 304.26 398.97 304.582 402.413 306.35ZM404.626 311.254C409.953 314.47 414.871 317.524 415.527 318.248C417.084 319.695 416.838 319.614 407.33 314.148C399.626 309.727 393.396 305.546 394.462 305.546C394.79 305.546 399.38 308.119 404.626 311.254ZM257.254 310.691C257.091 310.852 254.55 311.174 251.599 311.495C247.993 311.817 246.681 311.736 247.501 311.174C248.648 310.45 258.074 309.968 257.254 310.691Z" fill="white"/>
<path d="M261.025 230.464C254.14 231.991 245.616 235.448 240.288 238.905C238.157 240.271 233.075 244.773 229.059 248.873C221.928 256.027 221.354 256.429 215.535 258.037C196.109 263.584 180.864 270.578 164.553 281.43C151.275 290.273 146.275 294.372 146.849 296.061C147.341 297.186 151.193 298.874 164.717 303.617V303.617C165.764 303.996 165.492 305.546 164.379 305.546H160.127C152.259 305.546 149.964 305.788 149.144 306.752C147.423 308.762 150.21 310.852 161.029 315.997C180.864 325.402 203.896 332.316 221.272 334.165C226.6 334.727 226.6 334.727 233.157 340.998C236.763 344.535 241.108 348.313 242.911 349.438C251.025 354.905 264.795 360.21 270.697 360.21C274.631 360.21 274.549 358.683 270.533 350.564C267.582 344.696 265.861 342.364 263.156 340.274C260.287 338.184 259.959 337.702 261.599 338.104C264.959 338.988 286.679 336.898 295.859 334.969C308.564 332.155 317.17 328.698 337.251 318.248C347.415 312.942 357.414 308.28 360.201 307.556C370.365 304.984 377.414 306.27 387.413 312.621C408.314 325.643 427.493 333.361 430.362 329.904C431.92 328.136 430.608 325.563 423.067 314.952C414.215 302.733 413.56 301.286 414.051 295.257C414.461 289.469 416.592 285.047 423.887 275.24C430.69 265.995 431.51 264.307 429.788 262.539C428.149 260.931 426.92 261.011 419.871 262.941C411.592 265.192 403.888 268.327 390.036 274.999C379.299 280.144 377.332 280.787 372.004 281.189C364.299 281.751 358.398 280.305 345.857 274.838C340.694 272.587 332.579 269.211 327.907 267.282L327.12 266.973C324.125 265.798 323.953 261.624 326.842 260.207V260.207C331.022 258.198 334.383 256.027 334.383 255.384C334.383 253.937 327.334 247.667 320.94 243.406C314.219 238.985 302.417 233.599 294.63 231.589C285.86 229.258 269.139 228.695 261.025 230.464ZM263.73 238.583C262.254 239.708 259.14 242.361 256.845 244.371C254.632 246.381 255.451 245.416 258.73 242.2C262.008 239.065 265.123 236.413 265.615 236.413C266.107 236.413 265.287 237.377 263.73 238.583ZM278.975 240.191C276.762 241.799 272.992 244.773 270.533 246.783C265.533 250.882 265.615 249.837 270.615 245.416C274.549 241.959 281.27 237.216 282.253 237.216C282.663 237.216 281.188 238.583 278.975 240.191ZM294.712 243.085C286.434 249.194 285.04 250.079 285.286 249.355C285.696 248.23 295.204 241.236 296.269 241.316C296.761 241.316 296.023 242.12 294.712 243.085ZM412.822 277.491C412.002 277.973 408.15 279.42 404.298 280.706C400.445 281.993 396.921 283.279 396.347 283.681C395.855 284.083 394.708 284.645 393.806 284.887C390.61 285.932 395.036 283.198 398.642 281.832C410.609 277.491 412.74 276.767 413.478 276.687C413.969 276.687 413.642 277.009 412.822 277.491ZM221.846 288.665C227.42 300.241 222.174 313.907 210.207 319.534C204.224 322.267 202.83 322.187 207.42 319.373C220.944 310.932 224.797 293.569 215.781 281.671C212.912 277.812 213.568 277.411 216.846 281.028C218.486 282.797 220.699 286.253 221.846 288.665ZM193.65 282.395C195.454 284.565 195.454 286.655 193.405 288.665C191.274 290.755 189.224 290.675 186.52 288.585C183.815 286.494 183.651 282.877 186.274 281.028C188.487 279.501 191.601 280.063 193.65 282.395ZM409.625 281.832C408.888 282.555 397.249 286.253 395.937 286.173C395.2 286.092 397.741 285.047 401.593 283.761C408.478 281.51 410.445 281.028 409.625 281.832ZM275.778 293.167C278.975 293.89 282.008 294.453 282.581 294.533C284.057 294.614 283.975 294.855 279.385 300.402C269.795 312.219 258.32 318.569 246.681 318.328C243.075 318.328 243.157 318.248 249.14 316.801C256.681 314.952 262.008 312.781 266.926 309.485C271.024 306.672 281.926 296.864 281.926 295.9C281.926 295.096 271.434 293.488 265.943 293.488C260.287 293.488 251.025 294.774 245.206 296.463C239.796 297.91 238.813 297.427 243.566 295.498C252.746 291.88 265.697 290.916 275.778 293.167ZM256.517 304.341C253.566 304.903 250.206 305.546 248.976 305.948C245.042 306.993 246.517 305.627 250.615 304.421C252.746 303.778 256.107 303.296 258.156 303.296C261.681 303.296 261.599 303.376 256.517 304.341ZM402.413 306.35C404.216 307.235 405.691 308.199 405.691 308.36C405.691 308.923 399.708 306.431 398.806 305.466C397.495 304.26 398.97 304.582 402.413 306.35ZM404.626 311.254C409.953 314.47 414.871 317.524 415.527 318.248C417.084 319.695 416.838 319.614 407.33 314.148C399.626 309.727 393.396 305.546 394.462 305.546C394.79 305.546 399.38 308.119 404.626 311.254ZM257.254 310.691C257.091 310.852 254.55 311.174 251.599 311.495C247.993 311.817 246.681 311.736 247.501 311.174C248.648 310.45 258.074 309.968 257.254 310.691Z" fill="white"/>
<path d="M453.23 272.186C444.706 274.517 442.739 274.597 440.116 272.588C438.969 271.703 437.821 270.98 437.493 270.98C436.51 270.98 420.445 294.132 420.445 295.579C420.445 297.428 426.674 306.753 427.248 305.788C427.576 305.306 429.461 293.73 429.461 292.202C429.461 292.041 430.526 291.881 431.838 291.881C435.034 291.881 438.477 290.595 440.69 288.504V288.504C441.776 287.49 443.27 287.035 444.737 287.271L453.394 288.665C469.787 291.398 477.656 290.353 483.803 284.807C486.59 282.234 486.672 279.099 483.967 275.964C479.131 270.337 465.607 268.649 453.23 272.186Z" fill="white"/>
<path d="M154.062 320.499C154.062 321.946 158.488 332.799 161.521 338.667C185.045 384.569 231.682 412.624 281.106 410.614C329.465 408.605 372.004 381.192 393.397 338.104C399.216 326.448 399.216 327.252 393.233 323.554C390.446 321.866 387.823 320.338 387.577 320.178C387.25 320.017 386.512 321.303 386.02 322.991C383.069 331.914 371.676 350.805 366.349 355.79L365.492 356.577C364.568 357.427 363.101 357.243 362.415 356.191V356.191C359.71 352.172 355.939 349.117 352.497 348.153C350.53 347.67 347.497 345.902 345.53 344.133V344.133C343.486 342.269 340.404 342.124 338.194 343.788L337.416 344.374V344.374C334.165 346.74 333.926 349.909 336.64 352.874C336.84 353.093 337.044 353.315 337.252 353.539C339.792 356.352 341.76 359.246 341.76 360.211C341.76 361.176 343.645 363.909 346.35 366.722L349.239 369.655C350.195 370.627 350.11 372.21 349.054 373.073V373.073C345.038 376.449 333.727 383.443 327.416 386.578C319.465 390.437 306.843 394.537 297.909 396.064C287.336 397.913 287.663 397.993 287.663 392.125C287.663 388.508 287.172 386.417 285.942 384.408C284.303 381.755 284.303 381.514 285.532 370.34C287.172 355.388 287.418 347.751 286.188 347.831C285.614 347.912 283.565 347.992 281.516 347.992V347.992C279.795 348.069 278.7 349.866 279.422 351.431L279.467 351.529C281.188 355.307 281.516 359.809 280.287 362.944C279.303 365.677 274.877 368.25 271.353 368.25V368.25C269.892 368.25 268.74 369.491 268.849 370.947L269.14 374.842C269.631 380.469 269.467 381.996 268.238 384.327C267.254 386.176 266.763 388.91 266.763 392.205V392.205C266.763 394.955 264.381 397.099 261.646 396.81L261.435 396.788C248.485 395.421 232.092 389.794 219.633 382.478C212.994 378.62 204.06 372.43 204.06 371.787C204.06 371.546 205.7 369.777 207.749 367.767C209.716 365.758 211.765 362.783 212.339 361.176C212.912 359.407 215.699 355.709 219.306 352.092C222.666 348.715 225.371 345.58 225.371 345.098C225.371 343.651 223.322 342.686 219.224 342.124C217.011 341.882 214.306 341.48 213.404 341.32C212.093 340.998 210.371 341.963 207.503 344.535C204.962 346.786 202.667 348.153 201.355 348.153C199.224 348.153 196.192 350.645 192.339 355.388V355.388C191.19 356.849 188.995 356.906 187.771 355.506L187.667 355.388C183.241 350.323 177.258 341.4 173.652 334.567V334.567C171.305 330.226 167.671 326.719 163.249 324.528L162.095 323.956C157.669 321.785 154.062 320.258 154.062 320.499Z" fill="white"/>
<path d="M336.842 322.428C334.383 323.715 328.154 326.689 323.072 329.02L321.656 329.677C318.372 331.202 318.148 335.786 321.269 337.622V337.622L324.055 339.231C326.895 340.871 330.395 340.871 333.235 339.23V339.23C337.661 336.577 349.956 326.046 349.956 324.92C349.956 324.117 343.481 320.017 342.333 320.017C341.76 320.017 339.301 321.142 336.842 322.428Z" fill="white"/>
<path d="M535.768 189.328C535.768 190.158 537.262 192.15 539.088 193.81C542.241 196.631 542.407 198.955 542.407 232.152V267.672L538.258 270.327C535.934 271.821 534.606 273.647 535.104 274.477C535.602 275.307 548.549 275.971 563.985 275.971C595.19 275.971 592.866 276.967 594.692 262.194C596.186 250.742 594.692 250.244 586.061 259.207C580.583 264.85 578.425 265.846 570.292 266.842L560.665 267.838V231.322C560.665 196.465 560.831 194.64 563.985 192.98C570.624 189.328 567.139 188 551.536 188C542.905 188 535.768 188.664 535.768 189.328Z" fill="white"/>
<path d="M609.796 189.494C609.298 190.324 610.626 192.15 612.95 193.643L617.099 196.299V231.985V267.671L612.95 270.327C610.626 271.821 608.8 273.647 608.8 274.477C608.8 275.307 622.245 275.971 638.511 275.971C671.874 275.971 668.886 277.298 671.708 262.194C673.699 251.571 671.21 250.741 663.74 259.372C658.097 266.012 657.267 266.344 646.644 267.173L635.357 268.169V251.239V234.475H641.831C646.976 234.475 648.968 235.471 651.624 238.957C653.449 241.612 655.441 243.272 655.773 242.774C656.271 242.276 657.101 236.965 657.599 230.657C658.595 220.864 658.429 219.537 655.939 219.537C654.445 219.537 652.288 220.698 651.292 222.026C650.296 223.354 646.312 224.848 642.495 225.512L635.357 226.674V211.403V196.299H644.154C652.454 196.299 653.449 196.797 659.591 203.27L666.064 210.408L666.562 201.445C666.894 196.631 666.728 191.486 666.23 190.324C665.566 188.498 659.591 188 638.013 188C622.909 188 610.294 188.664 609.796 189.494Z" fill="white"/>
<path d="M715.155 189.435C714.438 191.407 714.259 191.228 717.755 193.379C719.458 194.455 721.341 196.069 721.789 196.965C722.596 198.489 720.624 259.274 719.548 265.729C719.189 267.522 717.934 269.404 716.231 270.749C714.348 272.273 713.631 273.439 713.99 274.425C714.797 276.576 735.237 276.576 735.237 274.425C735.237 273.708 734.072 272.094 732.637 270.839C731.203 269.673 729.768 267.522 729.499 266.177C729.141 264.832 729.589 253.088 730.306 239.998C731.024 226.909 731.651 215.254 731.741 213.999C731.741 212.655 732.01 212.296 732.279 213.103C738.106 228.792 754.154 269.942 755.319 272.094C756.574 274.604 757.292 275.052 759.533 274.783C762.222 274.514 762.312 274.335 772.174 248.067C777.643 233.543 782.753 219.468 783.56 216.958C784.367 214.358 785.173 212.206 785.442 212.206C785.711 212.206 786.07 214.537 786.16 217.316C786.249 220.185 786.966 231.93 787.684 243.495C789.118 266.087 788.76 269.135 784.636 271.377C783.56 271.915 782.753 273.17 782.753 274.066C782.753 275.77 783.47 275.859 796.201 275.859C811.71 275.859 812.876 275.232 807.497 270.211C805.076 267.88 804.269 266.446 804.269 264.115C804.269 262.411 803.462 248.964 802.476 234.171C801.49 219.378 800.683 205.303 800.683 202.972C800.683 198.579 801.311 197.593 806.959 193.021C809.021 191.407 809.021 191.317 807.407 190.152C805.256 188.538 789.477 188.448 786.339 190.062C784.904 190.779 783.47 192.931 782.125 196.517C781.049 199.476 776.298 212.206 771.636 224.758C765.36 241.791 763.029 247.171 762.491 245.826C756.843 230.764 741.065 191.497 740.078 189.973C738.823 188.09 738.196 188 727.258 188C717.576 188 715.603 188.269 715.155 189.435Z" fill="white"/>
<path d="M847.661 188.807C845.151 189.883 838.965 198.579 839.592 200.193C840.578 202.793 844.971 201.538 850.709 196.965C856.268 192.393 857.971 188.897 854.743 188.897C853.847 188.897 852.323 188.717 851.337 188.448C850.351 188.269 848.737 188.448 847.661 188.807Z" fill="white"/>
<path d="M1373.56 188.897C1371.41 190.152 1365.22 199.476 1365.94 200.551C1367.28 202.703 1371.5 201.358 1376.79 197.055C1379.84 194.545 1382.53 191.945 1382.88 191.138C1383.78 188.717 1376.79 187.014 1373.56 188.897Z" fill="white"/>
<path d="M978.912 206.648L975.505 206.917V214.896C975.505 219.289 975.863 223.054 976.312 223.323C977.925 224.399 979.539 222.875 982.049 218.124C984.291 213.91 985.008 213.282 987.877 212.744C995.049 211.579 994.421 208.8 994.153 240.537L993.884 268.867L991.463 270.839C987.07 274.335 988.146 274.873 1000.16 275.142C1006.35 275.322 1011.81 275.232 1012.26 275.142C1013.88 274.604 1013.25 272.811 1010.74 270.839L1008.23 268.867L1007.96 240.985C1007.69 209.786 1007.33 211.131 1013.97 212.744C1016.74 213.462 1017.55 214.269 1019.88 219.11C1022.66 225.027 1024.37 226.461 1026.34 224.489C1027.32 223.503 1027.41 221.441 1026.97 215.075L1026.34 206.827H1011.9C1003.92 206.738 994.063 206.648 989.849 206.558C985.636 206.469 980.705 206.469 978.912 206.648Z" fill="white"/>
<path d="M1102.18 206.648C1091.16 206.827 1090.26 207.007 1090.26 208.62C1090.26 209.517 1091.07 210.593 1092.14 210.862C1093.13 211.22 1094.29 212.475 1094.83 213.73C1095.28 214.896 1095.64 227.627 1095.64 241.971V267.97L1092.95 270.48C1091.51 271.825 1090.26 273.439 1090.26 273.977C1090.26 275.232 1114.11 275.322 1114.91 274.156C1115.18 273.618 1114.73 272.722 1114.02 272.094C1108.91 267.97 1109.09 268.508 1109.09 256.584C1109.09 245.378 1109.09 245.378 1111.24 245.378C1114.02 245.378 1114.47 246.005 1120.38 258.019C1123.07 263.667 1126.48 269.404 1127.73 270.749C1131.86 275.142 1138.67 276.935 1144.77 275.322C1146.92 274.694 1147.64 271.377 1145.58 271.377C1143.15 271.377 1138.58 265.191 1132.84 254.164L1126.93 242.867L1130.15 240.895C1139.57 235.068 1142.17 222.068 1135.53 214.089C1130.33 207.903 1122.53 206.2 1102.18 206.648ZM1119.93 215.165C1124.24 218.034 1125.31 220.723 1124.96 227.178C1124.78 231.571 1124.24 233.275 1122.53 235.068C1120.11 237.578 1115.09 239.461 1111.78 238.923C1109.53 238.654 1109.53 238.654 1109.27 227.089C1109.18 220.634 1109.27 214.896 1109.45 214.268C1110.25 212.296 1116.53 212.834 1119.93 215.165Z" fill="white"/>
<path d="M821.303 208.62C821.303 209.606 821.841 210.413 822.469 210.413C823.186 210.413 824.351 211.13 825.158 212.027C826.503 213.461 826.682 216.868 826.682 240.805V267.97L823.993 270.48C822.558 271.825 821.303 273.618 821.303 274.425C821.303 275.77 823.545 275.859 843.447 275.68L865.681 275.411L866.667 270.928C867.295 268.418 867.833 264.115 867.833 261.246C867.922 255.06 867.026 254.881 862.991 260.618C858.778 266.625 856.805 267.611 848.02 268.328L840.13 268.956V256.225V243.585H845.509C850.799 243.585 850.978 243.674 852.771 246.722C855.999 252.191 856.985 250.936 857.343 240.805C857.523 233.633 857.343 231.571 856.357 231.213C855.64 230.944 854.564 231.481 853.937 232.468C851.426 236.143 850.799 236.412 845.509 236.412H840.13V224.668V212.834L846.764 213.282C854.026 213.73 856.178 214.896 859.495 219.737C862.812 224.668 864.336 224.04 864.336 217.675C864.336 214.806 864.067 211.13 863.798 209.606L863.26 206.827H842.282C821.931 206.827 821.303 206.917 821.303 208.62Z" fill="white"/>
<path d="M875.991 208.082C875.991 208.799 876.977 210.144 878.143 210.861C882.088 213.461 882.357 215.613 882.088 243.047L881.819 268.777L878.95 271.197C873.66 275.501 875.453 276.039 893.563 275.68C909.611 275.411 909.7 275.411 915.528 272.542C922.79 268.956 928.079 263.398 931.844 255.419C934.534 249.77 934.713 248.784 934.713 239.46C934.713 229.868 934.624 229.33 931.576 223.323C929.334 218.93 927.183 216.241 923.955 213.82C916.783 208.351 912.838 207.455 893.294 207.006C877.964 206.737 875.991 206.827 875.991 208.082ZM910.418 216.689C916.335 220.454 919.114 226.64 919.652 237.219C920.459 251.384 916.424 263.667 909.88 267.073C905.935 269.135 897.687 269.494 896.522 267.611C896.073 266.984 895.715 254.612 895.715 240.178V213.999H900.915C905.128 213.999 906.921 214.537 910.418 216.689Z" fill="white"/>
<path d="M942.692 207.813C942.423 208.351 943.499 209.875 945.113 211.31L948.161 213.82V241.254V268.777L945.203 271.018C943.589 272.273 942.513 273.708 942.782 274.156C943.141 274.604 948.789 274.963 955.423 274.963C965.285 274.963 967.436 274.694 967.436 273.708C967.436 272.991 966.271 271.556 964.747 270.48L962.057 268.598V241.254V213.999L964.747 211.22C966.181 209.606 967.167 208.082 966.898 207.634C966.181 206.469 943.499 206.648 942.692 207.813Z" fill="white"/>
<path d="M1034.68 208.62C1034.68 209.606 1035.21 210.413 1035.84 210.413C1036.56 210.413 1037.72 211.131 1038.53 212.027C1039.88 213.461 1040.05 216.868 1040.05 240.805V267.97L1037.36 270.48C1031.99 275.501 1033.42 275.859 1058.97 275.59L1078.16 275.411L1079.23 272.184C1080.67 267.701 1081.12 256.584 1079.86 256.584C1079.32 256.584 1077.44 258.377 1075.83 260.529C1071.16 266.536 1069.28 267.522 1060.94 268.149L1053.5 268.687V256.136V243.585H1058.88C1064.17 243.585 1064.35 243.674 1066.23 246.722C1069.1 251.743 1070.09 250.308 1070.36 240.178C1070.54 231.93 1070.45 231.033 1069.01 231.033C1068.12 231.033 1066.68 232.288 1065.87 233.723C1064.44 236.233 1063.99 236.412 1058.88 236.412H1053.5V224.758V213.103H1058.88C1066.05 213.103 1069.91 214.806 1072.87 219.289C1076.72 225.206 1077.8 224.309 1077.53 215.075L1077.26 207.275L1056.01 207.007C1035.12 206.827 1034.68 206.827 1034.68 208.62Z" fill="white"/>
<path d="M1152.12 208.082C1152.12 208.889 1153.29 210.055 1154.81 210.862C1156.6 211.758 1157.59 213.103 1157.95 215.165C1158.22 216.689 1158.4 229.419 1158.22 243.405C1157.95 267.701 1157.86 268.866 1156.15 270.032C1152.84 272.363 1151.94 273.349 1152.75 274.156C1153.11 274.515 1158.57 274.963 1164.94 275.052C1177.4 275.321 1179.82 274.604 1176.33 271.646C1171.75 267.88 1171.84 268.149 1171.84 256.494V245.288L1174.35 245.557C1176.51 245.826 1177.4 247.081 1182.15 256.763C1185.11 262.77 1188.79 268.956 1190.22 270.57C1194.61 275.142 1200.62 276.935 1206.63 275.321C1209.14 274.604 1209.23 271.735 1206.81 270.928C1204.57 270.211 1201.34 265.46 1194.7 253.088L1189.5 243.226L1191.57 241.881C1199.81 236.323 1203.4 228.613 1201.34 220.903C1199.9 215.523 1197.75 212.924 1192.28 209.875C1187.53 207.275 1187.53 207.275 1169.87 207.006C1154.27 206.738 1152.12 206.827 1152.12 208.082ZM1184.48 216.51C1188.79 221.351 1188.88 231.93 1184.66 235.695C1182.51 237.578 1176.51 239.192 1173.91 238.564C1171.84 238.026 1171.84 237.847 1171.84 225.475V212.924L1176.95 213.282C1181.17 213.641 1182.42 214.179 1184.48 216.51Z" fill="white"/>
<path d="M1232.45 207.634C1232.18 208.082 1232.72 209.427 1233.7 210.682C1234.69 211.937 1235.5 213.641 1235.5 214.627C1235.5 215.523 1231.64 227.806 1226.89 241.971C1218.91 265.998 1218.1 267.97 1215.15 270.391C1209.95 274.694 1211.38 275.859 1221.96 275.859C1227.52 275.859 1231.1 275.501 1231.55 274.873C1231.82 274.335 1230.83 272.722 1229.31 271.377C1226.35 268.598 1226.26 267.073 1228.77 259.722L1229.85 256.584L1240.79 256.136C1253.34 255.598 1252.53 255.15 1254.41 263.667L1255.58 268.956L1252.98 270.929C1251.36 272.273 1250.65 273.528 1251.01 274.425C1251.45 275.68 1253.34 275.859 1263.2 275.859C1276.83 275.859 1277.9 275.142 1272.43 269.763C1269.29 266.715 1268.22 264.115 1259.25 237.757C1253.96 221.978 1249.21 208.531 1248.67 207.903C1247.69 206.648 1233.17 206.379 1232.45 207.634ZM1245.72 236.771L1249.75 248.067H1241.23C1234.69 248.067 1232.72 247.798 1232.99 246.902C1233.17 246.364 1234.96 240.716 1236.93 234.53C1238.9 227.985 1240.7 223.682 1241.05 224.309C1241.41 224.937 1243.56 230.495 1245.72 236.771Z" fill="white"/>
<path d="M1279.87 207.724C1279.52 208.351 1280.5 209.875 1282.2 211.31L1285.25 213.82L1285.52 240.447L1285.79 267.073L1282.47 270.122C1277.45 274.873 1278.53 275.859 1289.29 275.859C1299.96 275.859 1301.39 274.694 1296.37 270.48L1293.32 267.97L1293.23 247.26C1293.14 235.875 1293.32 226.551 1293.68 226.551C1294.04 226.551 1301.93 237.309 1311.25 250.398C1321.11 264.294 1329.09 274.694 1330.35 275.232C1334.74 277.294 1335.01 275.68 1335.01 242.957V213.103L1337.25 211.131C1341.38 207.544 1340.3 206.827 1330.98 206.827C1321.29 206.827 1320.58 207.455 1325.15 212.027L1327.84 214.717V231.84C1327.84 242.688 1327.48 248.964 1326.94 248.964C1326.49 248.964 1326.04 248.605 1326.04 248.247C1326.04 247.798 1319.5 238.474 1311.43 227.358L1296.82 207.275L1288.66 207.007C1283.28 206.827 1280.23 207.096 1279.87 207.724Z" fill="white"/>
<path d="M1348.46 208.62C1348.46 209.606 1348.91 210.413 1349.35 210.413C1349.89 210.413 1351.06 211.22 1352.04 212.206C1353.75 213.91 1353.84 215.165 1353.84 240.985V267.97L1351.06 270.57C1345.68 275.59 1346.84 275.859 1370.78 275.859C1388.35 275.859 1392.3 275.59 1392.66 274.604C1393.64 272.094 1395.26 258.825 1394.72 257.481C1393.91 255.239 1392.84 255.957 1389.34 260.977C1385.48 266.625 1383.69 267.522 1374.28 268.329L1367.28 268.867V256.226V243.585H1372.48C1378.31 243.585 1379.03 243.943 1380.46 247.35C1381.09 248.784 1382.17 249.86 1382.97 249.86C1384.05 249.86 1384.32 248.247 1384.32 240.447C1384.32 232.737 1384.05 231.033 1382.97 231.033C1382.26 231.033 1381.18 231.93 1380.64 233.006C1379.12 235.964 1378.13 236.412 1372.48 236.412H1367.28V224.758V213.103H1372.66C1379.75 213.103 1383.69 214.806 1386.74 219.289C1390.68 224.937 1391.49 224.13 1391.49 214.896V206.827H1369.97C1349.09 206.827 1348.46 206.917 1348.46 208.62Z" fill="white"/>
<path d="M1403.5 207.903C1403.15 208.531 1403.5 209.337 1404.49 209.875C1409.69 212.924 1409.51 211.668 1409.24 241.433L1408.97 268.687L1406.37 270.839C1404.58 272.184 1403.95 273.349 1404.31 274.335C1404.85 275.68 1407.18 275.859 1426.37 275.859H1447.88L1448.87 272.453C1450.39 267.253 1451.02 257.391 1449.94 256.674C1449.41 256.315 1447.34 258.198 1445.28 260.977C1443.31 263.756 1440.98 266.356 1440.08 266.805C1439.19 267.253 1434.97 267.97 1430.67 268.329L1422.87 268.956V256.226V243.585H1428.25C1433.54 243.585 1433.72 243.674 1435.51 246.722C1438.92 252.371 1439.9 250.936 1439.9 240.447C1439.9 230.047 1439.19 228.882 1435.6 233.723C1433.72 236.233 1433.18 236.412 1427.98 236.412H1422.42L1422.6 227.178C1422.78 211.31 1422.06 213.103 1428.25 213.103C1435.42 213.103 1439.28 214.806 1442.23 219.289C1446.09 225.206 1447.16 224.309 1446.9 215.075L1446.63 207.275L1425.38 207.007C1409.6 206.827 1404.04 207.096 1403.5 207.903Z" fill="white"/>
<path d="M1458.73 208.172C1458.73 208.889 1460.07 210.682 1461.69 212.117L1464.56 214.717V241.254V267.701L1461.51 270.839C1459.9 272.542 1458.82 274.335 1459.09 274.873C1459.54 275.501 1463.12 275.859 1468.23 275.859C1478.18 275.859 1479.53 274.784 1474.96 270.57C1471.82 267.611 1471.91 268.418 1471.82 242.509C1471.73 233.723 1472 226.64 1472.36 226.82C1472.98 226.999 1482.76 240.626 1499.07 264.025C1506.34 274.515 1509.11 277.025 1511.54 275.411C1512.25 275.053 1512.52 265.011 1512.52 244.929V214.986L1515.21 211.937C1516.73 210.234 1517.9 208.351 1517.9 207.813C1517.9 207.186 1514.94 206.827 1508.94 206.827C1500.87 206.827 1499.97 207.007 1499.97 208.441C1499.97 209.337 1500.96 210.682 1502.21 211.31C1503.38 211.937 1504.72 213.372 1504.99 214.358C1505.53 216.061 1505.62 248.067 1505.08 248.605C1504.99 248.695 1501.14 243.495 1496.65 237.04C1492.08 230.495 1485.36 220.992 1481.59 215.972L1474.87 206.827H1466.8C1460.16 206.827 1458.73 207.096 1458.73 208.172Z" fill="white"/>
<path d="M939.603 342.496C927.394 345.6 920.152 356.497 921.945 368.982C923.601 380.638 931.464 387.812 943.327 388.57C959.191 389.536 970.434 378.293 969.331 362.705C968.434 350.773 959.881 342.703 947.535 342.082C944.638 341.944 941.051 342.151 939.603 342.496ZM951.604 348.496C952.984 349.393 954.984 351.738 956.088 353.738C957.743 356.842 958.088 358.291 958.295 363.947C958.64 372.293 957.398 376.983 953.742 381.121C951.466 383.673 950.708 384.087 947.673 384.363C941.741 384.984 936.637 381.466 934.292 375.12C927.808 357.67 939.189 340.151 951.604 348.496Z" fill="white"/>
<path d="M979.815 343.393C979.815 343.875 980.573 344.703 981.539 345.117C982.505 345.6 983.608 346.703 983.953 347.738C984.85 349.945 984.85 378.431 983.953 382.156C983.608 383.673 982.988 384.984 982.574 385.122C981.332 385.536 979.815 387.398 980.16 388.088C980.78 389.053 997.541 388.915 998.162 387.881C998.438 387.467 997.748 386.363 996.506 385.329C994.23 383.398 994.092 382.777 994.23 374.017L994.299 369.396H996.3C998.093 369.396 998.576 369.948 1001.54 375.741C1006.02 384.363 1007.13 385.881 1010.44 387.398C1014.78 389.398 1021.89 388.984 1021.13 386.777C1020.99 386.363 1019.82 385.329 1018.51 384.432C1016.99 383.398 1014.65 380.225 1011.75 375.259C1007.89 368.499 1007.47 367.602 1008.51 366.982C1010.99 365.533 1014.44 362.223 1015.41 360.36C1016.85 357.532 1016.65 351.601 1015.06 348.911C1014.3 347.738 1012.23 345.876 1010.37 344.772C1007.06 342.841 1006.99 342.841 993.472 342.634C982.022 342.427 979.815 342.565 979.815 343.393ZM1002.44 348.014C1007.47 351.118 1008.09 359.808 1003.47 362.843C1001.61 364.085 994.299 365.119 994.23 364.154C993.816 359.533 993.954 348.773 994.437 347.807C995.265 346.152 999.541 346.29 1002.44 348.014Z" fill="white"/>
<path d="M1043.96 343.393C1043.96 343.944 1044.44 344.772 1045 345.255C1045.55 345.738 1046.03 346.841 1046.03 347.738C1046.03 349.255 1035.2 379.535 1033.61 382.57C1033.2 383.26 1031.96 384.363 1030.86 385.053C1029.68 385.674 1028.79 386.777 1028.79 387.467C1028.79 388.64 1029.41 388.709 1036.17 388.571C1043.82 388.364 1045.82 387.467 1042.31 385.881C1039.89 384.777 1039.55 383.053 1040.86 378.983L1042.03 375.534L1050.03 375.741L1057.96 375.948L1059.34 379.949C1060.72 384.087 1060.31 385.95 1058.03 385.95C1057.48 385.95 1057.07 386.57 1057.07 387.329C1057.07 388.709 1057.41 388.709 1066.17 388.571C1073.69 388.433 1075.34 388.157 1075.48 387.329C1075.62 386.777 1074.65 385.674 1073.41 384.915C1071.41 383.604 1070.58 381.811 1063.62 363.188L1056.03 342.841L1049.96 342.634C1045.13 342.496 1043.96 342.634 1043.96 343.393ZM1055.89 370.223C1055.48 370.982 1043.96 370.913 1043.96 370.155C1043.96 369.81 1045.27 365.878 1046.86 361.395L1049.69 353.325L1052.93 361.533C1054.72 366.085 1056.03 369.948 1055.89 370.223Z" fill="white"/>
<path d="M1085.21 342.979C1083.41 343.461 1083.69 344.358 1086.38 346.91L1088.79 349.186V366.499V383.811L1086.72 385.398C1083.07 388.088 1083.9 388.708 1091.55 388.708C1097.9 388.708 1098.45 388.571 1098.45 387.398C1098.45 386.639 1097.83 385.812 1097 385.605C1096.24 385.329 1095.35 384.363 1094.93 383.397C1094.17 381.397 1094.1 355.601 1094.86 355.67C1095.14 355.67 1101.07 362.912 1108.11 371.81C1126.45 394.985 1126.25 395.054 1125.97 367.464L1125.76 347.876L1128.04 345.945C1129.42 344.841 1130.18 343.737 1129.9 343.324C1129.28 342.358 1116.66 342.151 1116.04 343.117C1115.83 343.461 1116.8 344.841 1118.11 346.083L1120.59 348.359L1120.38 360.015L1120.18 371.603L1108.93 357.463C1099.69 345.876 1097.28 343.255 1095.55 342.91C1093.21 342.427 1087.07 342.496 1085.21 342.979Z" fill="white"/>
<path d="M806 362.843V364.567H846.35H886.7V362.843V361.119H846.35H806V362.843Z" fill="white"/>
<path d="M1165.35 362.843V364.567H1205.7H1246.05V362.843V361.119H1205.7H1165.35V362.843Z" fill="white"/>
</g>
</svg>
